ply
format ascii 1.0
comment Created by Open3D
element vertex 712
property double x
property double y
property double z
property uchar red
property uchar green
property uchar blue
end_header
0.184035 -0.439412 -0.151545 0 255 255
0.184044 -0.424851 -0.140535 0 255 255
0.173976 -0.420878 -0.156267 0 255 255
0.184035 -0.40233 -0.151547 0 255 255
-0.168508 -0.438029 -0.153175 0 255 255
0.184036 -0.380081 -0.151548 0 255 255
-0.168618 -0.439101 -0.123731 0 255 255
-0.166244 -0.422032 -0.14917 0 255 255
-0.166273 -0.422387 -0.134534 0 255 255
0.184045 -0.364959 -0.140538 0 255 255
0.173977 -0.361548 -0.156267 0 255 255
0.184134 -0.436385 0.134098 0 255 255
-0.163319 -0.401342 -0.146072 0 255 255
-0.17622 -0.399975 -0.156692 0 255 255
0.184405 -0.436547 0.150274 0 255 255
-0.163315 -0.401469 -0.131384 0 255 255
0.181819 -0.34192 -0.156258 0 255 255
0.174831 -0.41901 0.133515 0 255 255
-0.160928 -0.380972 -0.156675 0 255 255
0.184046 -0.335013 -0.140539 0 255 255
-0.16076 -0.380801 -0.142431 0 255 255
0.184405 -0.413202 0.150274 0 255 255
0.184379 -0.403784 0.133219 0 255 255
0.173977 -0.324466 -0.156267 0 255 255
0.184046 -0.323783 -0.14054 0 255 255
-0.168082 -0.437033 0.123084 0 255 255
-0.159321 -0.369104 -0.122212 0 255 255
-0.158332 -0.360547 -0.153164 0 255 255
0.184405 -0.394527 0.150274 0 255 255
-0.168146 -0.437664 0.144388 0 255 255
0.175183 -0.381603 0.132283 0 255 255
-0.166133 -0.423297 0.130086 0 255 255
0.184036 -0.302211 -0.151548 0 255 255
-0.157205 -0.350773 -0.12531 0 255 255
0.184055 -0.3042 -0.12932 0 255 255
-0.165367 -0.418072 0.150088 0 255 255
-0.156186 -0.340275 -0.148984 0 255 255
0.184405 -0.366513 0.150273 0 255 255
0.175403 -0.35826 0.131514 0 255 255
-0.16298 -0.401131 0.145701 0 255 255
-0.162597 -0.398266 0.134276 0 255 255
0.166084 -0.28458 -0.156276 0 255 255
-0.155871 -0.321459 -0.156665 0 255 255
-0.161107 -0.384627 0.121002 0 255 255
-0.154686 -0.32559 -0.121456 0 255 255
-0.154331 -0.321818 -0.136976 0 255 255
0.184379 -0.343793 0.133219 0 255 255
0.184405 -0.343168 0.150273 0 255 255
0.184047 -0.275122 -0.140542 0 255 255
-0.160247 -0.37895 0.140679 0 255 255
-0.152611 -0.302338 -0.146832 0 255 255
-0.171108 -0.30208 -0.156682 0 255 255
0.184047 -0.263892 -0.140543 0 255 255
-0.158262 -0.362453 0.137031 0 255 255
0.184405 -0.324492 0.150273 0 255 255
0.175754 -0.32097 0.130286 0 255 255
-0.157326 -0.354478 0.12467 0 255 255
-0.152166 -0.296965 -0.13269 0 255 255
0.173977 -0.25401 -0.156268 0 255 255
-0.156392 -0.345567 0.155278 0 255 255
-0.156165 -0.343144 0.143944 0 255 255
-0.150887 -0.280497 -0.149318 0 255 255
0.175929 -0.302352 0.129673 0 255 255
-0.155319 -0.333116 0.121013 0 255 255
0.184056 -0.243737 -0.129323 0 255 255
-0.150544 -0.276497 -0.127566 0 255 255
0.184405 -0.296478 0.150273 0 255 255
0.184036 -0.231757 -0.151548 0 255 255
-0.154225 -0.323772 0.151229 0 255 255
-0.150828 -0.262158 -0.156661 0 255 255
0.184379 -0.283802 0.133219 0 255 255
-0.15532 -0.312774 0.121016 0 255 255
-0.149486 -0.260316 -0.144018 0 255 255
-0.149464 -0.260404 -0.121588 0 255 255
0.184057 -0.224843 -0.129324 0 255 255
0.184405 -0.273134 0.150273 0 255 255
-0.15229 -0.302207 0.147614 0 255 255
0.166084 -0.2139 -0.156277 0 255 255
-0.151587 -0.292796 0.124767 0 255 255
-0.148405 -0.241665 -0.1529 0 255 255
0.176322 -0.260526 0.128295 0 255 255
0.182126 -0.214977 -0.100536 0 255 255
-0.166922 -0.283224 0.121005 0 255 255
-0.148108 -0.237077 -0.131161 0 255 255
0.184405 -0.254458 0.150273 0 255 255
0.184047 -0.204001 -0.140544 0 255 255
-0.150746 -0.282821 0.155701 0 255 255
-0.150611 -0.280861 0.144476 0 255 255
0.182172 -0.213453 -0.0640011 0 255 255
0.182157 -0.211337 -0.0764236 0 255 255
0.176497 -0.241966 0.127684 0 255 255
0.173977 -0.194679 -0.156268 0 255 255
-0.149583 -0.266561 0.121084 0 255 255
-0.147328 -0.221526 -0.147156 0 255 255
-0.166015 -0.221408 -0.156669 0 255 255
0.18222 -0.211834 -0.0252043 0 255 255
0.182254 -0.212098 0.00202441 0 255 255
-0.149154 -0.259699 0.141753 0 255 255
-0.14708 -0.216611 -0.125133 0 255 255
0.182272 -0.210112 0.0160711 0 255 255
0.184405 -0.226444 0.150273 0 255 255
0.184379 -0.223811 0.133219 0 255 255
0.182308 -0.210347 0.0450867 0 255 255
0.168848 -0.194818 -0.0617764 0 255 255
-0.149548 -0.246239 0.121019 0 255 255
0.169836 -0.194082 -0.039626 0 255 255
-0.146583 -0.203596 -0.125871 0 255 255
-0.146516 -0.200192 -0.148336 0 255 255
-0.166015 -0.200322 -0.156669 0 255 255
0.182365 -0.208477 0.091055 0 255 255
0.170858 -0.19332 -0.0167 0 255 255
0.184058 -0.175717 -0.129326 0 255 255
0.184036 -0.172427 -0.151548 0 255 255
-0.147927 -0.238704 0.139462 0 255 255
0.182385 -0.206314 0.107075 0 255 255
0.179748 -0.192434 0.010059 0 255 255
0.180985 -0.191616 0.0347075 0 255 255
-0.155321 -0.226316 0.121016 0 255 255
0.184405 -0.203099 0.150273 0 255 255
0.182269 -0.190767 0.0602659 0 255 255
0.184058 -0.16438 -0.129327 0 255 255
0.157216 -0.16273 -0.153887 0 255 255
0.137087 -0.164041 -0.153911 0 255 255
0.124853 -0.164838 -0.153926 0 255 255
-0.147111 -0.224551 0.14885 0 255 255
-0.145909 -0.182162 -0.156502 0 255 255
0.184379 -0.196123 0.133219 0 255 255
0.182365 -0.190544 0.0910552 0 255 255
0.104197 -0.162363 -0.153951 0 255 255
0.0747059 -0.16424 -0.153986 0 255 255
-0.166015 -0.179235 -0.156669 0 255 255
0.18077 -0.189025 0.112727 0 255 255
0.0532198 -0.161711 -0.154012 0 255 255
0.0269595 -0.163343 -0.154044 0 255 255
0.0136296 -0.164171 -0.15406 0 255 255
-0.145751 -0.176668 -0.134638 0 255 255
0.184036 -0.150178 -0.151548 0 255 255
-0.0134399 -0.161856 -0.154092 0 255 255
-0.0364252 -0.16325 -0.15412 0 255 255
-0.0551006 -0.164383 -0.154143 0 255 255
0.184405 -0.184424 0.150273 0 255 255
0.181776 -0.181487 0.125697 0 255 255
-0.0836044 -0.16201 -0.154177 0 255 255
-0.102942 -0.163154 -0.1542 0 255 255
-0.122555 -0.164314 -0.154224 0 255 255
0.157216 -0.144026 -0.153887 0 255 255
-0.137449 -0.161013 -0.154242 0 255 255
-0.155872 -0.16178 -0.156664 0 255 255
0.0958401 -0.143731 -0.153961 0 255 255
0.0747059 -0.144918 -0.153986 0 255 255
0.122406 -0.141455 -0.128049 0 255 255
0.0532199 -0.142227 -0.154012 0 255 255
0.0269595 -0.143663 -0.154044 0 255 255
0.0136296 -0.144391 -0.15406 0 255 255
0.184379 -0.163821 0.133219 0 255 255
0.157773 -0.164502 0.126702 0 255 255
0.184058 -0.134149 -0.129328 0 255 255
0.184036 -0.131638 -0.151548 0 255 255
0.0494038 -0.141456 -0.12817 0 255 255
-0.0134399 -0.141874 -0.154092 0 255 255
-0.0457307 -0.143591 -0.154131 0 255 255
0.13854 -0.160861 0.126678 0 255 255
0.119065 -0.161867 0.126655 0 255 255
0.0993457 -0.162886 0.126631 0 255 255
-0.145476 -0.177669 0.14577 0 255 255
-0.145479 -0.176473 0.134886 0 255 255
-0.0278314 -0.141458 -0.128297 0 255 255
-0.0759712 -0.141452 -0.15104 0 255 255
-0.122555 -0.143515 -0.154224 0 255 255
0.184405 -0.15641 0.150273 0 255 255
0.0489436 -0.160693 0.12657 0 255 255
0.0283287 -0.161727 0.126544 0 255 255
0.00744671 -0.162774 0.126519 0 255 255
-0.0137075 -0.163836 0.126494 0 255 255
-0.0351393 -0.164911 0.126468 0 255 255
-0.166926 -0.170956 0.121011 0 255 255
-0.10968 -0.141459 -0.128433 0 255 255
-0.140178 -0.141454 -0.142859 0 255 255
-0.145802 -0.140264 -0.156657 0 255 255
-0.166017 -0.14128 -0.156667 0 255 255
-0.0568542 -0.161045 0.126441 0 255 255
-0.078858 -0.162115 0.126415 0 255 255
-0.101156 -0.1632 0.126387 0 255 255
-0.118077 -0.164024 0.126367 0 255 255
0.182161 -0.139985 0.124331 0 255 255
0.148186 -0.14177 0.12669 0 255 255
0.0993457 -0.144001 0.126631 0 255 255
0.184047 -0.114166 -0.140544 0 255 255
-0.140905 -0.154973 0.126339 0 255 255
0.105465 -0.14145 0.15261 0 255 255
0.0489436 -0.141506 0.12657 0 255 255
0.0283287 -0.142416 0.126544 0 255 255
0.00744671 -0.143339 0.126519 0 255 255
-0.0137075 -0.144273 0.126494 0 255 255
-0.161113 -0.150286 0.121014 0 255 255
0.184405 -0.133065 0.150273 0 255 255
0.173977 -0.105683 -0.156268 0 255 255
-0.00399828 -0.141451 0.153857 0 255 255
-0.0264354 -0.141454 0.143318 0 255 255
-0.0533502 -0.141456 0.130646 0 255 255
-0.0678196 -0.141692 0.126428 0 255 255
-0.0899698 -0.142637 0.126401 0 255 255
-0.112418 -0.143595 0.126374 0 255 255
-0.145187 -0.121909 -0.127946 0 255 255
-0.145802 -0.119329 -0.156658 0 255 255
-0.166018 -0.120193 -0.156665 0 255 255
-0.126077 -0.141454 0.153011 0 255 255
0.182332 -0.121569 0.123724 0 255 255
-0.144935 -0.134538 0.123136 0 255 255
0.173977 -0.0945585 -0.156268 0 255 255
-0.155321 -0.129687 0.121018 0 255 255
0.184405 -0.114389 0.150273 0 255 255
-0.144915 -0.120922 0.144712 0 255 255
-0.145246 -0.10053 -0.127857 0 255 255
-0.145803 -0.0983943 -0.156657 0 255 255
-0.166019 -0.099107 -0.156664 0 255 255
0.184379 -0.10383 0.133219 0 255 255
0.184059 -0.0850241 -0.12933 0 255 255
-0.144895 -0.116563 0.155704 0 255 255
-0.144989 -0.11424 0.123235 0 255 255
-0.155322 -0.109344 0.121018 0 255 255
0.163701 -0.0945576 0.122813 0 255 255
0.184036 -0.0723082 -0.151548 0 255 255
-0.144973 -0.100348 0.144821 0 255 255
-0.145706 -0.0820872 -0.149514 0 255 255
-0.16602 -0.0822378 -0.156663 0 255 255
0.184405 -0.0863756 0.150273 0 255 255
-0.145035 -0.0958605 0.155968 0 255 255
-0.145159 -0.0939536 0.12355 0 255 255
-0.145718 -0.0791954 -0.127157 0 255 255
0.182716 -0.0801951 0.122361 0 255 255
0.184059 -0.0661298 -0.12933 0 255 255
-0.166931 -0.089306 0.12102 0 255 255
-0.14543 -0.0798169 0.145682 0 255 255
0.163972 -0.0668341 0.1219 0 255 255
0.184059 -0.0547933 -0.12933 0 255 255
0.166085 -0.0539399 -0.156277 0 255 255
-0.145626 -0.0736894 0.124416 0 255 255
-0.14611 -0.0621075 -0.126575 0 255 255
-0.146195 -0.0610827 -0.148803 0 255 255
-0.16602 -0.0611512 -0.156663 0 255 255
0.184405 -0.0630308 0.150273 0 255 255
0.182887 -0.0618354 0.121757 0 255 255
-0.166932 -0.0688933 0.121023 0 255 255
0.164107 -0.0529873 0.121444 0 255 255
-0.145903 -0.0592598 0.146574 0 255 255
-0.146167 -0.0534034 0.125418 0 255 255
0.184405 -0.0443551 0.150273 0 255 255
0.184379 -0.0438393 0.133219 0 255 255
-0.166934 -0.0484806 0.121026 0 255 255
-0.146935 -0.04074 -0.125348 0 255 255
-0.147026 -0.0400681 -0.147595 0 255 255
-0.166021 -0.0400647 -0.156661 0 255 255
0.184036 -0.0315189 -0.151548 0 255 255
0.164288 -0.0345404 0.120837 0 255 255
-0.146747 -0.0386952 0.148165 0 255 255
0.184059 -0.0245625 -0.12933 0 255 255
-0.147049 -0.0331017 0.127053 0 255 255
-0.166935 -0.0280678 0.121029 0 255 255
0.18327 -0.0205897 0.120398 0 255 255
-0.147864 -0.019324 -0.123967 0 255 255
-0.147917 -0.0191101 -0.138912 0 255 255
-0.160935 -0.0189436 -0.156665 0 255 255
0.184405 -0.0163413 0.150273 0 255 255
-0.14764 -0.0180812 0.149847 0 255 255
0.184036 -0.00927028 -0.151548 0 255 255
-0.147968 -0.0127484 0.128756 0 255 255
0.164558 -0.00690313 0.119927 0 255 255
-0.172772 -0.00766802 0.121033 0 255 255
0.18344 -0.00228667 0.119796 0 255 255
-0.148863 -0.00215023 -0.122482 0 255 255
-0.14893 -0.0021147 -0.144826 0 255 255
-0.150827 -0.00209727 -0.156662 0 255 255
-0.171129 -0.00211253 -0.156652 0 255 255
-0.148888 0.00258773 0.152199 0 255 255
0.184405 0.00700341 0.150273 1 254 255
0.164693 0.00690063 0.119472 1 254 255
0.184059 0.00566825 -0.12933 1 254 255
0.173977 0.00556225 -0.156268 1 254 255
-0.149598 0.0127786 0.131775 3 252 255
-0.172772 0.01278 0.121034 3 252 255
0.184379 0.0161513 0.133219 4 251 255
-0.150217 0.0233343 0.154703 5 250 255
-0.150257 0.0192825 -0.12799 4 251 255
-0.150826 0.0188753 -0.156663 4 251 255
-0.171129 0.0190126 -0.156651 4 251 255
0.184405 0.0256793 0.150273 6 249 255
0.164873 0.0252903 0.118866 6 249 255
-0.15101 0.0332923 0.134393 8 247 255
-0.172773 0.0332281 0.121035 8 247 255
0.184036 0.0278108 -0.151548 7 248 255
0.183822 0.0388317 0.118441 9 246 255
-0.151877 0.0438842 0.146841 11 244 255
0.184059 0.0358991 -0.12933 9 246 255
-0.151893 0.0408038 -0.125577 10 245 255
-0.151896 0.0401294 -0.147863 10 245 255
-0.17113 0.0401378 -0.15665 10 245 255
-0.152747 0.0535566 0.126898 13 242 255
-0.166936 0.053584 0.12103 13 242 255
0.184405 0.053693 0.150273 13 242 255
0.155651 0.0530051 0.117943 13 242 255
-0.153631 0.0646989 0.150119 16 239 255
0.184034 0.0616372 0.11769 15 240 255
0.184036 0.0500595 -0.151548 12 243 255
-0.153355 0.0581067 -0.12342 14 241 255
0.15579 0.0668085 0.117488 17 238 255
0.184071 0.055321 -0.1179 14 241 255
0.0366299 0.0706721 0.144982 18 237 255
0.0234165 0.0706722 0.138757 18 237 255
-0.00301027 0.0706724 0.126306 18 237 255
-0.0162236 0.0706725 0.12008 18 237 255
-0.0426506 0.0706726 0.107629 18 237 255
-0.055864 0.0706727 0.101403 18 237 255
-0.0866957 0.0706729 0.086877 18 237 255
-0.113123 0.0706731 0.0744259 18 237 255
-0.126337 0.0706732 0.0682 18 237 255
-0.152764 0.0706733 0.0557488 18 237 255
-0.165978 0.0706734 0.0495232 18 237 255
-0.153702 0.0617502 -0.13789 15 240 255
-0.166025 0.0611516 -0.156656 15 240 255
0.15568 0.070672 0.102369 18 237 255
0.13508 0.070672 0.0926598 18 237 255
0.0691596 0.0706719 0.0615903 18 237 255
0.0485583 0.070672 0.0518837 18 237 255
0.0320772 0.0706721 0.0441184 18 237 255
0.0114757 0.0706722 0.034412 18 237 255
-0.00912577 0.0706724 0.0247054 18 237 255
-0.0297273 0.0706725 0.0149988 18 237 255
-0.050329 0.0706726 0.00529206 18 237 255
-0.0709307 0.0706728 -0.00441468 18 237 255
-0.0915325 0.0706729 -0.0141214 18 237 255
-0.108014 0.070673 -0.0218868 18 237 255
-0.128616 0.0706731 -0.0315937 18 237 255
-0.149218 0.0706733 -0.0413005 18 237 255
-0.16982 0.0706734 -0.0510073 18 237 255
0.184481 0.0770211 0.149994 19 236 255
0.184461 0.0761244 0.132923 19 236 255
0.184421 0.0743923 0.0999473 19 236 255
0.184402 0.0735555 0.0840158 18 237 255
0.184365 0.071937 0.0532047 18 237 255
0.182882 0.0706741 0.0284764 18 237 255
0.155789 0.070674 0.0157065 18 237 255
0.144178 0.070674 0.0102335 18 237 255
0.0977324 0.0706739 -0.0116576 18 237 255
0.0822508 0.0706738 -0.0189548 18 237 255
0.0590282 0.0706738 -0.0299002 18 237 255
0.0396761 0.0706737 -0.0390215 18 237 255
0.0203242 0.0706737 -0.048143 18 237 255
0.000972152 0.0706736 -0.0572641 18 237 255
-0.0183798 0.0706736 -0.0663854 18 237 255
-0.0377318 0.0706736 -0.0755066 18 237 255
-0.0609542 0.0706735 -0.0864521 18 237 255
-0.0803061 0.0706734 -0.0955734 18 237 255
-0.0996579 0.0706734 -0.104694 18 237 255
-0.11901 0.0706734 -0.113816 18 237 255
0.184312 0.0738591 0.00944901 18 237 255
0.184279 0.0723187 -0.0182006 18 237 255
0.184247 0.0708413 -0.0447204 18 237 255
0.166833 0.0706758 -0.0558962 18 237 255
0.184047 0.065505 -0.140544 16 239 255
0.166085 0.0650999 -0.156277 16 239 255
0.123041 0.0706757 -0.0765369 18 237 255
0.104794 0.0706756 -0.0851372 18 237 255
0.0755993 0.0706756 -0.0988977 18 237 255
0.0646512 0.0706755 -0.104058 18 237 255
0.0354565 0.0706755 -0.117818 18 237 255
0.0245085 0.0706754 -0.122978 18 237 255
-0.00468612 0.0706754 -0.136739 18 237 255
-0.015634 0.0706753 -0.141899 18 237 255
-0.0448286 0.0706753 -0.155659 18 237 255
-0.063073 0.0711047 -0.156554 18 237 255
-0.086893 0.0717288 -0.156583 18 237 255
-0.106252 0.0722361 -0.156607 18 237 255
-0.125887 0.0727506 -0.15663 18 237 255
-0.145804 0.0732725 -0.156654 18 237 255
0.184202 0.0726626 -0.0825289 18 237 255
0.154152 0.0691505 -0.156291 17 238 255
0.142162 0.0706773 -0.136032 18 237 255
0.121449 0.0706773 -0.145795 18 237 255
0.100736 0.0706772 -0.155557 18 237 255
0.0800761 0.0712025 -0.156381 18 237 255
0.0587129 0.0717942 -0.156407 18 237 255
0.0413649 0.0722748 -0.156428 18 237 255
0.0193508 0.0728846 -0.156454 18 237 255
0.00147003 0.0733799 -0.156476 18 237 255
-0.0212256 0.0740086 -0.156504 18 237 255
-0.166008 0.0780192 -0.156679 19 236 255
0.184402 0.0869291 0.0840158 22 233 255
0.18439 0.0957175 0.150327 24 231 255
0.184274 0.089399 0.0535103 22 233 255
0.184312 0.0865207 0.00944901 22 233 255
0.184173 0.078953 -0.10651 20 235 255
-0.120952 0.0850707 -0.156624 21 234 255
-0.140798 0.0856799 -0.156648 21 234 255
0.18435 0.098076 0.116569 25 230 255
0.18433 0.0969602 0.100266 24 231 255
0.184189 0.0888711 -0.0179156 22 233 255
0.184232 0.0861535 -0.0575781 22 233 255
0.00596291 0.0851347 -0.156471 21 234 255
-0.0166554 0.0858628 -0.156498 21 234 255
-0.0678159 0.0875112 -0.15654 22 233 255
-0.0917172 0.0882804 -0.156573 22 233 255
0.184157 0.0911046 -0.0444425 23 232 255
0.184098 0.0875281 -0.0943733 22 233 255
0.184145 0.0850035 -0.129576 21 234 255
0.125858 0.0850552 -0.156325 21 234 255
0.0500482 0.0876121 -0.156377 22 233 255
-0.0350453 0.0904779 -0.156495 23 232 255
-0.171107 0.0950601 -0.156683 24 231 255
0.154129 0.0878449 -0.156234 22 233 255
0.113513 0.0892736 -0.15629 22 233 255
0.0842856 0.0903017 -0.15633 23 232 255
0.184029 0.0908504 -0.15153 23 232 255
0.0281822 0.0962017 -0.156408 24 231 255
0.184311 0.113706 0.0843308 29 226 255
0.184274 0.111204 0.0535109 28 227 255
0.184239 0.10881 0.0240184 27 228 255
0.184205 0.106516 -0.00423133 27 228 255
0.184083 0.0982345 -0.106249 25 230 255
-0.120959 0.105821 -0.156614 27 228 255
-0.140803 0.106578 -0.156641 27 228 255
0.18439 0.123732 0.150327 31 224 255
0.18435 0.120884 0.116569 30 225 255
0.184189 0.109539 -0.0179143 28 227 255
0.184142 0.106216 -0.0573031 27 228 255
-0.00305504 0.105294 -0.156451 26 229 255
-0.0630856 0.107675 -0.156534 27 228 255
-0.0869034 0.10862 -0.156567 27 228 255
0.18433 0.124019 0.100266 31 224 255
0.184157 0.11135 -0.0444415 28 227 255
-0.0166714 0.109828 -0.15647 28 227 255
-0.0350453 0.110584 -0.156495 28 227 255
-0.171107 0.116185 -0.156683 29 226 255
0.184292 0.125669 0.0687494 32 223 255
0.184097 0.110869 -0.094372 28 227 255
0.173954 0.10569 -0.156206 27 228 255
0.113513 0.108268 -0.15629 27 228 255
0.0842856 0.109515 -0.15633 28 227 255
0.0543778 0.110791 -0.156372 28 227 255
0.18437 0.136136 0.133252 34 221 255
0.184274 0.128647 0.0535109 32 223 255
0.154129 0.110273 -0.156234 28 227 255
0.0237649 0.11603 -0.156414 29 226 255
0.183094 0.142927 0.155047 36 219 255
0.184239 0.130145 0.0240184 32 222 255
0.184056 0.115256 -0.129321 29 226 255
0.133985 0.114931 -0.156262 29 226 255
-0.116043 0.126345 -0.156607 32 223 255
-0.145808 0.127704 -0.156648 32 223 255
0.183198 0.142509 0.10423 36 219 255
0.184189 0.130207 -0.0179139 32 222 255
0.184157 0.127547 -0.0444412 32 223 255
0.184142 0.126257 -0.0573024 32 223 255
0.184083 0.121349 -0.106248 31 224 255
-0.053674 0.127547 -0.156521 32 223 255
-0.0725628 0.128438 -0.156547 32 223 255
-0.0869034 0.129114 -0.156567 32 222 255
0.184205 0.135756 -0.00423121 34 221 255
-0.00305504 0.129134 -0.156451 32 222 255
-0.0166714 0.129796 -0.15647 32 222 255
0.184097 0.13032 -0.0943712 32 222 255
0.14611 0.125628 -0.156245 32 223 255
0.10523 0.127678 -0.156301 32 223 255
0.0842856 0.128728 -0.15633 32 223 255
0.0543778 0.130228 -0.156372 32 222 255
0.176879 0.150251 0.0481999 38 217 255
0.184029 0.127932 -0.151529 32 223 255
0.0237649 0.135696 -0.156414 34 221 255
-0.166054 0.145505 -0.156615 36 218 255
0.184069 0.135442 -0.117895 34 221 255
0.133985 0.133772 -0.156262 34 221 255
-0.140843 0.148382 -0.156583 36 218 255
0.179161 0.14834 -0.0420802 36 218 255
-0.0423493 0.147705 -0.151941 36 218 255
-0.0619181 0.148926 -0.150662 38 217 255
-0.0820903 0.150234 -0.148916 38 217 255
-0.0978598 0.151327 -0.14695 38 217 255
0.176329 0.150541 -0.0590167 38 217 255
-0.00714505 0.150121 -0.148998 38 217 255
-0.10059 0.16796 -0.0436954 42 213 255
-0.100855 0.165935 -0.060771 42 213 255
-0.10124 0.162988 -0.0856262 40 214 255
-0.101638 0.16015 -0.109573 40 215 255
-0.10212 0.157433 -0.132545 40 215 255
-0.116078 0.155351 -0.156553 39 216 255
0.177862 0.149443 -0.0999805 38 217 255
0.136985 0.145222 -0.153661 36 218 255
0.0990816 0.147638 -0.151828 36 218 255
0.0816669 0.14879 -0.150645 38 217 255
0.0592473 0.150338 -0.148588 38 217 255
0.0404111 0.15177 -0.145787 38 217 255
-0.0978994 0.190999 0.108916 48 207 255
-0.0981173 0.188419 0.0877777 48 207 255
-0.0983295 0.185908 0.0672027 47 208 255
-0.0986078 0.183484 0.0473028 46 209 255
-0.0989148 0.181132 0.0279812 46 209 255
-0.0992141 0.17884 0.00914872 44 210 255
-0.0995059 0.176605 -0.00921321 44 210 255
0.156214 0.148152 -0.151292 36 218 255
-0.0970747 0.20136 0.152224 51 204 255
-0.0973099 0.198566 0.12991 50 205 255
-0.155915 0.165993 -0.156602 42 213 255
-0.0995861 0.176654 -0.0799861 44 210 255
-0.140843 0.169281 -0.156583 43 211 255
-0.0994893 0.177708 -0.104969 44 210 255
-0.181401 0.175981 -0.156634 44 210 255
-0.0964983 0.21038 0.10616 52 202 255
-0.0966965 0.207533 0.0850307 52 202 255
-0.0968125 0.206144 0.0747154 52 203 255
-0.0970399 0.203421 0.0544933 52 203 255
-0.0972614 0.200769 0.0347985 51 204 255
-0.0976875 0.195667 -0.00308919 50 205 255
-0.0980927 0.190818 -0.0390991 48 207 255
-0.10143 0.175133 -0.156535 44 211 255
-0.120996 0.176378 -0.156559 44 210 255
-0.0961244 0.221421 0.150288 56 199 255
-0.0962421 0.218309 0.127772 55 200 255
-0.0989071 0.182789 -0.129833 46 209 255
-0.0976433 0.197153 -0.0575434 50 205 255
-0.0964093 0.216099 0.0431947 55 200 255
-0.0969031 0.20653 -0.0230651 52 203 255
-0.0976225 0.197855 -0.0832595 50 205 255
-0.140843 0.19018 -0.156583 48 207 255
-0.0959318 0.229976 0.105046 58 197 255
-0.0959907 0.228395 0.0943388 58 197 255
-0.0961059 0.225296 0.0733609 56 198 255
-0.0963812 0.217904 0.0233258 55 200 255
-0.0975049 0.199708 -0.100052 51 204 255
-0.0977936 0.196219 -0.123741 50 205 255
-0.160976 0.195761 -0.156608 50 205 255
-0.0958866 0.241691 0.149803 60 194 255
-0.0958574 0.238239 0.127002 60 195 255
-0.0963538 0.219661 0.00397968 56 199 255
-0.0978635 0.195785 -0.154535 50 205 255
-0.0965309 0.215854 -0.050681 55 200 255
-0.181401 0.205665 -0.156634 52 203 255
-0.0959185 0.236509 0.0523801 60 195 255
-0.0961952 0.22589 -0.0150989 56 198 255
-0.116079 0.205064 -0.156553 52 203 255
-0.0960729 0.249815 0.105323 63 192 255
-0.0960574 0.248068 0.094469 63 192 255
-0.0959681 0.238077 0.0324019 60 195 255
-0.0964747 0.219202 -0.0851727 56 199 255
-0.135855 0.210702 -0.156577 52 202 255
-0.0963971 0.262254 0.150843 67 188 255
-0.0961884 0.258435 0.127665 65 189 255
-0.0960164 0.239604 0.012949 60 194 255
-0.0962486 0.226249 -0.0685725 56 198 255
-0.0964954 0.219497 -0.109844 56 199 255
-0.0966368 0.215637 -0.133445 55 200 255
-0.0961873 0.254398 0.0735168 65 190 255
-0.0962356 0.255748 0.0529776 65 190 255
-0.0961389 0.245712 -0.0058651 62 193 255
-0.155916 0.224826 -0.156602 56 198 255
-0.0969341 0.269967 0.107018 69 186 255
-0.0963691 0.225426 -0.149285 56 198 255
-0.116079 0.225777 -0.156552 56 198 255
-0.0977185 0.283209 0.153536 72 183 255
-0.0974748 0.279071 0.13024 71 184 255
-0.0970352 0.271157 0.0856856 69 186 255
-0.0965192 0.261875 0.0334232 67 188 255
-0.0963283 0.25834 0.0135173 65 189 255
-0.0962463 0.250053 -0.0333205 64 191 255
-0.0962149 0.246885 -0.0512247 63 192 255
-0.0961545 0.240784 -0.0857065 60 194 255
-0.135855 0.231563 -0.156577 59 195 255
-0.181401 0.235348 -0.156634 60 195 255
-0.0961834 0.24069 -0.110352 60 194 255
-0.0961404 0.236388 -0.134234 60 195 255
-0.0974417 0.27727 0.0655154 70 185 255
-0.0963337 0.252641 -0.0684285 64 191 255
-0.0985569 0.290518 0.11021 73 181 255
-0.0975317 0.278331 0.045292 71 184 255
-0.0968165 0.265502 -0.0232177 67 188 255
-0.155916 0.245837 -0.156602 62 193 255
-0.0997951 0.302424 0.146244 77 178 255
-0.0995659 0.300164 0.134426 76 179 255
-0.0986828 0.291451 0.088871 73 181 255
-0.0976194 0.279365 0.0256007 71 184 255
-0.0964494 0.258258 -0.0852149 65 189 255
-0.0963231 0.24609 -0.149357 62 193 255
-0.116079 0.246491 -0.156552 63 192 255
-0.0977045 0.280371 0.00642061 71 184 255
-0.0971957 0.271253 -0.0406553 69 186 255
-0.0964729 0.257847 -0.10988 65 189 255
-0.140843 0.252877 -0.156584 64 191 255
-0.181401 0.256551 -0.156634 65 190 255
-0.0993513 0.297445 0.0691447 76 179 255
-0.102096 0.318813 0.15089 81 174 255
-0.100673 0.309239 0.103471 79 176 255
-0.0994636 0.298262 0.0489018 76 179 255
-0.097564 0.276866 -0.0576786 70 185 255
-0.0968058 0.263327 -0.125325 67 188 255
-0.0995734 0.299058 0.0291913 76 179 255
-0.0983498 0.287042 -0.0296416 73 182 255
-0.145848 0.265892 -0.15659 68 187 255
-0.103054 0.324848 0.130154 83 172 255
-0.101621 0.315213 0.0839325 80 175 255
-0.0996807 0.299833 0.00999188 76 179 255
-0.0992647 0.295759 -0.00964201 75 179 255
-0.0978233 0.280564 -0.0829245 71 184 255
-0.120996 0.267679 -0.156558 68 187 255
-0.10174 0.315817 0.0633498 80 175 255
-0.0978999 0.281483 -0.0994039 72 183 255
-0.0976091 0.276315 -0.124037 70 185 255
-0.104958 0.335911 0.133931 85 170 255
-0.103987 0.33073 0.109933 84 171 255
-0.0992787 0.295376 -0.0547512 75 179 255
-0.0974991 0.273942 -0.155101 70 185 255
-0.106617 0.344271 0.148541 88 167 255
-0.102651 0.321561 0.0447848 81 173 255
-0.100402 0.306103 -0.0260516 78 177 255
-0.166054 0.284683 -0.156614 72 183 255
-0.105146 0.336598 0.0906901 86 169 255
-0.102413 0.319786 0.0149295 81 174 255
-0.101747 0.315319 -0.00522935 80 175 255
-0.0983571 0.285895 -0.138485 73 182 255
-0.135854 0.285803 -0.156578 73 182 255
-0.108909 0.355727 0.153129 91 163 255
-0.105237 0.336927 0.0699401 86 169 255
-0.100381 0.305403 -0.0701704 78 177 255
-0.0999783 0.301477 -0.0877137 77 178 255
-0.116079 0.287918 -0.156552 73 182 255
-0.107875 0.350296 0.106642 89 166 255
-0.0996836 0.298374 -0.120712 76 179 255
-0.106396 0.342599 0.0517237 87 168 255
-0.105411 0.337561 0.0300679 86 169 255
-0.102388 0.319128 -0.0494432 81 174 255
-0.10143 0.294635 -0.156534 75 179 255
-0.176268 0.302647 -0.156626 77 178 255
-0.105495 0.337866 0.010904 86 169 255
-0.160976 0.30522 -0.156608 78 177 255
-0.114063 0.376505 0.152 96 159 255
-0.110454 0.361648 0.0902456 92 163 255
-0.105105 0.335757 -0.0178261 85 170 255
-0.100535 0.306003 -0.142759 78 177 255
-0.120997 0.30503 -0.156558 78 177 255
-0.113303 0.373269 0.117138 95 160 255
-0.110478 0.361645 0.0694835 92 163 255
-0.10913 0.3561 0.0467525 91 163 255
-0.10363 0.327008 -0.0732456 83 172 255
-0.102989 0.322711 -0.0910534 81 173 255
-0.102364 0.318525 -0.108399 81 174 255
-0.181403 0.315918 -0.156631 80 175 255
-0.140842 0.315573 -0.156585 80 175 255
-0.11651 0.385169 0.123338 97 157 255
-0.110525 0.361637 0.0295899 92 163 255
-0.10674 0.343755 -0.0420139 88 167 255
-0.12026 0.397939 0.152903 101 154 255
-0.116437 0.384833 0.101616 97 157 255
-0.113967 0.375692 0.0657523 96 159 255
-0.110548 0.361634 0.0104157 92 163 255
-0.113944 0.375502 0.0456172 96 159 255
-0.110569 0.361631 -0.00826967 92 163 255
-0.109288 0.356364 -0.0287263 91 163 255
-0.104257 0.330656 -0.129171 84 171 255
-0.120997 0.32578 -0.156558 83 172 255
-0.108803 0.353935 -0.0560186 89 165 255
-0.107387 0.346722 -0.0838355 88 167 255
-0.106027 0.339797 -0.110541 86 169 255
-0.104017 0.328921 -0.152542 84 171 255
-0.155916 0.334087 -0.156601 85 170 255
-0.119888 0.396416 0.0870672 101 154 255
-0.114587 0.377962 0.017597 96 159 255
-0.135854 0.335871 -0.156577 85 170 255
-0.126395 0.416514 0.14245 105 149 255
-0.119771 0.395936 0.0663041 101 154 255
-0.114557 0.377749 -0.00129557 96 159 255
-0.181402 0.345602 -0.156633 88 167 255
-0.126147 0.415713 0.12007 105 149 255
-0.119656 0.395469 0.0460925 101 154 255
-0.114528 0.377542 -0.0197093 96 159 255
-0.111907 0.366774 -0.0594473 93 162 255
-0.119545 0.395014 0.0264111 101 154 255
-0.114499 0.377339 -0.0376627 96 159 255
-0.110064 0.35912 -0.104071 91 163 255
-0.108044 0.349655 -0.138707 89 166 255
-0.116079 0.345916 -0.156552 88 167 255
-0.128079 0.421273 0.102373 107 147 255
-0.110089 0.359147 -0.119964 91 163 255
-0.155916 0.355099 -0.156601 89 165 255
-0.121118 0.400256 0.0101798 102 153 255
-0.113799 0.374303 -0.081669 95 160 255
-0.128755 0.42313 0.0726066 108 147 255
-0.120991 0.39975 -0.00858712 102 153 255
-0.116681 0.385001 -0.0600891 97 157 255
-0.140842 0.36573 -0.156585 93 162 255
-0.129406 0.424919 0.0439413 108 147 255
-0.127059 0.418019 0.0205696 107 147 255
-0.117363 0.387205 -0.0841668 99 156 255
-0.114996 0.378984 -0.112217 97 158 255
-0.113132 0.371333 -0.138478 95 160 255
-0.181401 0.375285 -0.156634 96 159 255
-0.12682 0.417258 0.00144577 105 149 255
-0.122416 0.404301 -0.0419291 103 152 255
-0.11608 0.374915 -0.156551 95 160 255
-0.155916 0.384515 -0.156601 97 157 255
-0.126141 0.41509 -0.0530604 105 149 255
-0.122948 0.405703 -0.0834161 103 152 255
-0.121121 0.399812 -0.102548 102 153 255
-0.117863 0.388671 -0.138826 99 156 255
-0.135853 0.385938 -0.156579 97 157 255
-0.130761 0.427685 -0.0280175 109 146 255
-0.121003 0.39935 -0.118558 102 153 255
-0.176268 0.395769 -0.156626 101 154 255
-0.155916 0.405527 -0.156602 103 152 255
-0.130686 0.427513 -0.0874492 109 146 255
-0.127182 0.417885 -0.116798 105 149 255
-0.123108 0.405922 -0.153397 103 152 255
-0.135853 0.415144 -0.15658 105 149 255
-0.181403 0.426172 -0.156631 109 146 255
-0.160977 0.435728 -0.156606 111 144 255
