ply
format ascii 1.0
comment Created by Open3D
element vertex 627
property double x
property double y
property double z
property uchar red
property uchar green
property uchar blue
end_header
-0.199832 -0.184845 -0.151885 0 255 255
-0.220176 -0.183424 -0.155638 0 255 255
-0.240336 -0.183266 -0.152596 0 255 255
-0.260392 -0.175948 -0.151347 0 255 255
-0.175908 -0.175257 -0.152055 0 255 255
0.271619 -0.186563 -0.152175 0 255 255
0.251446 -0.185899 -0.152157 0 255 255
0.287707 -0.183262 -0.15249 0 255 255
-0.223522 -0.164854 -0.163504 0 255 255
-0.263307 -0.163984 -0.161005 0 255 255
0.230204 -0.177279 -0.154802 0 255 255
-0.243439 -0.160825 -0.163492 0 255 255
-0.15868 -0.161911 -0.15205 0 255 255
-0.183215 -0.155878 -0.163528 0 255 255
-0.203401 -0.155665 -0.160984 0 255 255
-0.283486 -0.154544 -0.152635 0 255 255
0.307394 -0.167341 -0.161537 0 255 255
0.273877 -0.165997 -0.163794 0 255 255
0.253881 -0.165405 -0.163781 0 255 255
0.219507 -0.164821 -0.160934 0 255 255
0.210732 -0.16848 -0.135457 0 255 255
0.286311 -0.158993 -0.16309 0 255 255
0.255368 -0.154737 -0.160705 0 255 255
0.204905 -0.153684 -0.158291 0 255 255
-0.186159 -0.143863 -0.151191 0 255 255
-0.243713 -0.142272 -0.151159 0 255 255
0.323814 -0.152766 -0.161375 0 255 255
0.243397 -0.150684 -0.160706 0 255 255
0.195188 -0.151732 -0.143905 0 255 255
-0.144919 -0.141206 -0.153379 0 255 255
-0.263254 -0.136761 -0.162258 0 255 255
-0.162821 -0.135859 -0.163538 0 255 255
-0.21343 -0.135763 -0.15447 0 255 255
0.296639 -0.144865 -0.158808 0 255 255
0.285047 -0.183425 0.133117 0 255 255
0.273853 -0.182743 0.130159 0 255 255
0.253715 -0.182162 0.129683 0 255 255
-0.293072 -0.130026 -0.156362 0 255 255
0.225434 -0.177257 0.133811 0 255 255
0.223405 -0.135271 -0.161049 0 255 255
-0.22018 -0.124704 -0.15909 0 255 255
-0.263724 -0.124645 -0.151147 0 255 255
0.340895 -0.135345 -0.152947 0 255 255
0.283131 -0.133909 -0.153487 0 255 255
0.19558 -0.130819 -0.161754 0 255 255
0.214538 -0.167181 0.130846 0 255 255
-0.149136 -0.122425 -0.163546 0 255 255
-0.240266 -0.121153 -0.156303 0 255 255
0.315182 -0.129836 -0.162206 0 255 255
0.264927 -0.129233 -0.157553 0 255 255
0.183998 -0.129201 -0.142186 0 255 255
0.255943 -0.162415 0.122373 0 255 255
0.23619 -0.161962 0.122384 0 255 255
0.206421 -0.164681 0.15093 0 255 255
-0.168986 -0.119991 -0.151202 0 255 255
-0.189691 -0.119105 -0.154634 0 255 255
0.285779 -0.158373 0.122355 0 255 255
0.345547 -0.124107 -0.152069 0 255 255
0.198799 -0.130894 -0.0633192 0 255 255
0.196116 -0.153073 0.134581 0 255 255
-0.292787 -0.109325 -0.16031 0 255 255
0.215618 -0.116603 -0.16081 0 255 255
0.216548 -0.147466 0.122395 0 255 255
-0.134313 -0.110264 -0.151413 0 255 255
0.330639 -0.114926 -0.163827 0 255 255
0.30458 -0.115698 -0.151479 0 255 255
0.284501 -0.114522 -0.15875 0 255 255
0.240806 -0.113738 -0.157738 0 255 255
0.194737 -0.112166 -0.163746 0 255 255
0.280789 -0.144089 0.122358 0 255 255
0.178403 -0.122642 -0.0612525 0 255 255
0.161556 -0.122299 -0.0612417 0 255 255
0.190754 -0.145017 0.148549 0 255 255
-0.200019 -0.104474 -0.160433 0 255 255
-0.220178 -0.104389 -0.157339 0 255 255
-0.260399 -0.104223 -0.151148 0 255 255
0.264893 -0.110496 -0.157622 0 255 255
0.180124 -0.110421 -0.141979 0 255 255
0.248541 -0.131633 0.0527811 0 255 255
0.23445 -0.131356 0.052788 0 255 255
-0.149136 -0.101733 -0.163546 0 255 255
-0.182826 -0.102089 -0.153555 0 255 255
-0.240216 -0.100409 -0.158937 0 255 255
-0.305995 -0.103284 -0.118045 0 255 255
0.201802 -0.126284 0.052808 0 255 255
0.183288 -0.125933 0.0528181 0 255 255
0.197409 -0.133176 0.123603 0 255 255
0.118229 -0.112951 -0.0663563 0 255 255
0.304375 -0.104277 -0.151867 0 255 255
0.211217 -0.101615 -0.161865 0 255 255
0.198799 -0.110757 -0.0633188 0 255 255
0.130275 -0.0982419 -0.181706 0 255 255
0.140628 -0.109887 -0.0612292 0 255 255
0.164877 -0.121177 0.0528305 0 255 255
-0.124172 -0.0996109 -0.118151 0 255 255
-0.289389 -0.0923709 -0.16238 0 255 255
0.127915 -0.0969304 -0.156573 0 255 255
0.128746 -0.0981684 -0.143221 0 255 255
-0.0920684 -0.0960842 -0.12331 0 255 255
0.247404 -0.0949476 -0.160658 0 255 255
0.127665 -0.0961673 -0.123692 0 255 255
0.121629 -0.112354 0.0610769 0 255 255
0.330639 -0.0923178 -0.163827 0 255 255
0.275431 -0.0916784 -0.160711 0 255 255
0.194755 -0.0901047 -0.163703 0 255 255
0.253251 -0.109399 0.0527778 0 255 255
0.229766 -0.109016 0.0527898 0 255 255
0.127361 -0.0943134 -0.100997 0 255 255
0.139167 -0.108024 0.0585783 0 255 255
0.0293355 -0.0865485 -0.173728 0 255 255
0.0096623 -0.0856782 -0.180203 0 255 255
-0.00961581 -0.0848265 -0.186532 0 255 255
-0.0278839 -0.084266 -0.189621 0 255 255
-0.0442525 -0.086147 -0.164252 0 255 255
-0.0654884 -0.0858482 -0.163677 0 255 255
-0.152564 -0.0844346 -0.163544 0 255 255
-0.193114 -0.0844705 -0.155286 0 255 255
-0.326919 -0.0860392 -0.110917 0 255 255
0.114012 -0.0870031 -0.141013 0 255 255
0.0935807 -0.0863795 -0.144741 0 255 255
0.0658823 -0.0856461 -0.148417 0 255 255
0.0545873 -0.0854693 -0.148411 0 255 255
0.0107679 -0.0838173 -0.160279 0 255 255
-0.00777553 -0.0834069 -0.161748 0 255 255
-0.0936715 -0.0819032 -0.16366 0 255 255
-0.233581 -0.0802653 -0.15679 0 255 255
-0.263307 -0.0794567 -0.161 0 255 255
0.234597 -0.0841093 -0.153916 0 255 255
0.25856 -0.101592 0.0661925 0 255 255
0.246786 -0.102897 0.0852422 0 255 255
0.141548 -0.0805487 -0.181711 0 255 255
-0.172891 -0.077469 -0.160555 0 255 255
-0.21008 -0.0771888 -0.156973 0 255 255
-0.352889 -0.0780729 -0.118019 0 255 255
0.312791 -0.0816749 -0.151483 0 255 255
0.210386 -0.079292 -0.163755 0 255 255
0.182618 -0.0809758 -0.13574 0 255 255
0.197967 -0.084826 -0.0869093 0 255 255
0.13224 -0.0796146 -0.144319 0 255 255
-0.0928763 -0.0959018 0.118278 0 255 255
-0.282874 -0.0723049 -0.16246 0 255 255
-0.320587 -0.0920305 0.110188 0 255 255
-0.315926 -0.0749794 -0.120095 0 255 255
0.405983 -0.0817654 -0.114613 0 255 255
0.393546 -0.0827233 -0.0986941 0 255 255
0.134666 -0.0748947 -0.159136 0 255 255
0.0696577 -0.0747641 -0.148419 0 255 255
0.0508327 -0.0745071 -0.148408 0 255 255
-0.115798 -0.0905455 0.110068 0 255 255
-0.373865 -0.0784309 -0.011001 0 255 255
0.394005 -0.0802966 -0.0749236 0 255 255
0.339057 -0.0741016 -0.156195 0 255 255
0.0321366 -0.0706298 -0.148398 0 255 255
-0.324774 -0.0649613 -0.163526 0 255 255
-0.343909 -0.0647128 -0.163515 0 255 255
-0.362898 -0.0644662 -0.163504 0 255 255
0.279103 -0.069738 -0.153424 0 255 255
0.142907 -0.0834146 0.0867113 0 255 255
-0.0298295 -0.0652635 -0.163697 0 255 255
-0.0477192 -0.0650431 -0.163687 0 255 255
-0.0690278 -0.0647806 -0.163675 0 255 255
-0.246819 -0.0627846 -0.160534 0 255 255
0.259124 -0.0657642 -0.152938 0 255 255
0.114012 -0.0647896 -0.141012 0 255 255
0.0935808 -0.0643252 -0.144741 0 255 255
-0.0901652 -0.0610326 -0.163662 0 255 255
-0.10765 -0.0608288 -0.163652 0 255 255
-0.083943 -0.0781637 0.118272 0 255 255
-0.189885 -0.0600472 -0.160683 0 255 255
-0.223546 -0.0602294 -0.15117 0 255 255
0.409615 -0.0696662 -0.0477374 0 255 255
0.322461 -0.0620835 -0.16382 0 255 255
0.235164 -0.0612645 -0.161313 0 255 255
0.214312 -0.0608952 -0.163758 0 255 255
0.190141 -0.0621646 -0.136836 0 255 255
0.152869 -0.0591934 -0.181718 0 255 255
-0.110222 -0.0596265 -0.1233 0 255 255
-0.128256 -0.0594284 -0.123289 0 255 255
-0.148319 -0.057543 -0.152463 0 255 255
-0.173038 -0.0566391 -0.163533 0 255 255
-0.292088 -0.0576283 -0.123193 0 255 255
0.0121032 -0.0556014 -0.154608 0 255 255
-0.00777553 -0.055013 -0.161748 0 255 255
-0.0298295 -0.0546802 -0.163697 0 255 255
-0.0477192 -0.0544956 -0.163687 0 255 255
-0.279983 -0.0524925 -0.156195 0 255 255
-0.384952 -0.0554243 -0.0812066 0 255 255
0.302116 -0.0543617 -0.163809 0 255 255
0.279309 -0.0542811 -0.161011 0 255 255
0.255319 -0.054059 -0.160808 0 255 255
0.210487 -0.0573291 -0.0869169 0 255 255
0.142892 -0.0541975 -0.136326 0 255 255
0.028315 -0.0524631 -0.148786 0 255 255
-0.392832 -0.0510609 -0.0953964 0 255 255
-0.305574 -0.0470292 -0.123185 0 255 255
-0.327973 -0.0449444 -0.163524 0 255 255
-0.350255 -0.0447441 -0.163511 0 255 255
-0.369196 -0.0445738 -0.1635 0 255 255
-0.411614 -0.0479207 -0.0836005 0 255 255
0.149596 -0.045741 -0.160319 0 255 255
0.143929 -0.0565192 0.09017 0 255 255
0.0696577 -0.0455879 -0.148419 0 255 255
0.0508327 -0.0454312 -0.148408 0 255 255
0.0121032 -0.0448399 -0.154608 0 255 255
-0.00777553 -0.0443653 -0.161748 0 255 255
-0.153302 -0.0448131 -0.123274 0 255 255
-0.25334 -0.0422399 -0.163487 0 255 255
-0.305491 -0.0418023 -0.163537 0 255 255
0.164238 -0.0413431 -0.181724 0 255 255
-0.0831383 -0.040161 -0.163666 0 255 255
-0.104163 -0.04 -0.163654 0 255 255
-0.11745 -0.0415026 -0.123295 0 255 255
-0.183192 -0.039421 -0.162947 0 255 255
-0.275132 -0.0402951 -0.123203 0 255 255
-0.408031 -0.0400517 -0.103649 0 255 255
0.24195 -0.0389447 -0.163775 0 255 255
0.220625 -0.038989 -0.158436 0 255 255
0.208422 -0.0395413 -0.140863 0 255 255
0.227263 -0.0416315 -0.0869271 0 255 255
0.0720215 -0.0390847 -0.127092 0 255 255
0.0720133 -0.0395757 -0.113564 0 255 255
0.0669711 -0.040423 -0.0892506 0 255 255
0.0669629 -0.0409578 -0.0745171 0 255 255
0.0669457 -0.042071 -0.0438489 0 255 255
-0.203447 -0.0358305 -0.163515 0 255 255
-0.223522 -0.0356901 -0.163503 0 255 255
0.155124 -0.034943 -0.155912 0 255 255
0.114012 -0.0351715 -0.141012 0 255 255
0.0935808 -0.0349194 -0.144741 0 255 255
0.0719494 -0.0392591 -0.00843811 0 255 255
0.0719433 -0.0398079 0.00827408 0 255 255
0.066901 -0.0408396 0.0406576 0 255 255
0.0668902 -0.0414438 0.0590549 0 255 255
0.066879 -0.0420661 0.0780044 0 255 255
0.0668674 -0.0427074 0.0975318 0 255 255
0.0668555 -0.0433686 0.117664 0 255 255
0.0668432 -0.0440506 0.138429 0 255 255
0.0533963 -0.0440822 0.141989 0 255 255
0.0344948 -0.0439626 0.141999 0 255 255
-0.385515 -0.0326834 -0.120263 0 255 255
-0.405771 -0.0326851 -0.116297 0 255 255
0.296957 -0.0320027 -0.158201 0 255 255
0.270017 -0.0316943 -0.16349 0 255 255
0.152706 -0.039356 0.119878 0 255 255
-0.0338731 -0.0316371 -0.106731 0 255 255
-0.118085 -0.0294864 -0.163646 0 255 255
-0.174586 -0.0303524 -0.123261 0 255 255
-0.261488 -0.0298605 -0.12321 0 255 255
-0.298839 -0.0296491 -0.123189 0 255 255
0.338589 -0.0300764 -0.0953348 0 255 255
-0.0483312 -0.0273613 -0.125292 0 255 255
-0.058395 -0.0263155 -0.16368 0 255 255
-0.327973 -0.0249691 -0.163524 0 255 255
-0.350255 -0.0248578 -0.163511 0 255 255
-0.369196 -0.0247632 -0.1635 0 255 255
0.232764 -0.024596 -0.140314 0 255 255
0.246518 -0.0255492 -0.100553 0 255 255
0.160587 -0.0242551 -0.141538 0 255 255
0.13884 -0.0242694 -0.136701 0 255 255
0.122268 -0.0241344 -0.139506 0 255 255
-0.0223433 -0.0238256 -0.125308 0 255 255
-0.185165 -0.0231649 -0.123255 0 255 255
-0.292554 -0.0217932 -0.163544 0 255 255
0.3206 -0.0218071 -0.10495 0 255 255
0.251128 -0.0206415 -0.152826 0 255 255
0.230835 -0.0214236 -0.107775 0 255 255
0.209276 -0.0213022 -0.109997 0 255 255
0.171843 -0.0198006 -0.181729 0 255 255
0.0720299 -0.020222 -0.140286 0 255 255
0.0720151 -0.0207302 -0.113558 0 255 255
0.0719979 -0.0212645 -0.0854572 0 255 255
0.0719891 -0.0215421 -0.0708565 0 255 255
0.0719705 -0.0221197 -0.040481 0 255 255
0.0718819 -0.0247764 0.09925 0 255 255
0.00389233 -0.0202562 -0.125325 0 255 255
-0.0796179 -0.0192203 -0.163669 0 255 255
-0.10067 -0.0191432 -0.163656 0 255 255
-0.131848 -0.0197963 -0.123286 0 255 255
-0.210014 -0.0189768 -0.151281 0 255 255
-0.23053 -0.0194349 -0.123228 0 255 255
-0.278532 -0.0192591 -0.123201 0 255 255
0.301132 -0.0177097 -0.109708 0 255 255
0.279719 -0.0176353 -0.11035 0 255 255
0.0719514 -0.0185965 -0.00843012 0 255 255
0.0719412 -0.0188563 0.0082655 0 255 255
0.0719299 -0.0191233 0.0254313 0 255 255
0.0719064 -0.0196807 0.0612638 0 255 255
0.0718941 -0.0199718 0.0799751 0 255 255
-0.149738 -0.0161434 -0.123276 0 255 255
-0.213173 -0.0159533 -0.123238 0 255 255
-0.305492 -0.0150489 -0.163537 0 255 255
0.157118 -0.0163964 0.134812 0 255 255
0.0718686 -0.0160071 0.11911 0 255 255
0.0718563 -0.0162549 0.13959 0 255 255
-0.138831 -0.0120931 -0.163633 0 255 255
-0.174586 -0.0124981 -0.123261 0 255 255
-0.258066 -0.0123035 -0.123212 0 255 255
-0.377996 -0.0119823 -0.126589 0 255 255
0.322451 -0.00934305 -0.17117 0 255 255
0.300504 -0.00921448 -0.181805 0 255 255
0.280618 -0.00918137 -0.181794 0 255 255
0.260874 -0.0091485 -0.181782 0 255 255
0.241271 -0.00911587 -0.181771 0 255 255
0.221807 -0.00908346 -0.181759 0 255 255
0.202481 -0.00905129 -0.181748 0 255 255
-0.0630719 -0.00909591 -0.125285 0 255 255
0.170193 -0.00552632 -0.157087 0 255 255
0.101718 -0.00552945 -0.143256 0 255 255
-0.0446338 -0.00547597 -0.125295 0 255 255
-0.324774 -0.00499703 -0.163526 0 255 255
-0.343909 -0.00497791 -0.163515 0 255 255
-0.362898 -0.00495895 -0.163504 0 255 255
-0.405647 -0.00506455 -0.134882 0 255 255
0.17212 -0.00180133 -0.181051 0 255 255
0.0720299 -0.00183838 -0.140286 0 255 255
0.0720152 -0.00188458 -0.113557 0 255 255
0.0719997 -0.00193316 -0.0854505 0 255 255
0.0719909 -0.0019584 -0.0708497 0 255 255
0.0719725 -0.00201091 -0.0404735 0 255 255
0.071953 -0.0020663 -0.00842416 0 255 255
0.0719395 -0.00209514 0.00825906 0 255 255
0.0719282 -0.00212481 0.0254245 0 255 255
0.0719046 -0.00218675 0.0612565 0 255 255
0.0709806 -0.00221219 0.0761558 0 255 255
0.00389281 -0.00184149 -0.125323 0 255 255
-0.0760924 -0.00174849 -0.16367 0 255 255
-0.104163 -0.00173914 -0.163654 0 255 255
-0.153302 -0.00179254 -0.123273 0 255 255
-0.195703 -0.00177842 -0.123248 0 255 255
-0.223601 -0.00176913 -0.123232 0 255 255
-0.292554 -0.00167641 -0.163544 0 255 255
-0.0545093 0.00187524 -0.094515 0 255 255
-0.0542509 0.00192043 -0.0684286 0 255 255
-0.0539893 0.00196773 -0.0411168 0 255 255
-0.0481666 0.00208409 0.0250701 0 255 255
-0.266477 0.0016851 -0.16356 0 255 255
0.339184 0.00589743 -0.11817 1 254 255
0.32131 0.00587095 -0.119825 1 254 255
0.299193 0.00583818 -0.12187 1 254 255
0.281676 0.00581223 -0.12349 1 254 255
0.259997 0.00578011 -0.125495 1 254 255
0.238557 0.00574835 -0.127477 1 254 255
0.175845 0.00550448 -0.162385 1 254 255
0.175879 0.0056065 -0.14272 1 254 255
0.155102 0.00562471 -0.135196 1 254 255
0.134741 0.00559376 -0.13723 1 254 255
0.114012 0.00555338 -0.141012 1 254 255
0.0935808 0.00551357 -0.144741 1 254 255
0.157118 0.00702702 0.134812 1 254 255
0.0718686 0.00686017 0.11911 1 254 255
0.0718563 0.00696637 0.13959 1 254 255
-0.026071 0.00549448 -0.125306 1 254 255
-0.0307672 0.00556711 -0.110395 1 254 255
-0.0299368 0.00570007 -0.0849168 1 254 255
-0.0290658 0.00583955 -0.0581915 1 254 255
-0.0281605 0.00598573 -0.0301796 1 254 255
-0.0228363 0.00627751 0.0250549 1 254 255
-0.0250229 0.00647594 0.0637398 1 254 255
-0.0238675 0.00665743 0.0985113 1 254 255
-0.125019 0.00519654 -0.163642 1 254 255
-0.162826 0.00515878 -0.163619 1 254 255
-0.244334 0.00528663 -0.12322 1 254 255
-0.40492 0.00504452 -0.138881 1 254 255
0.221574 0.00953869 -0.129048 2 253 255
0.200553 0.00948679 -0.130992 2 253 255
-0.17105 0.00893308 -0.123263 2 253 255
-0.253337 0.00844731 -0.163567 2 253 255
-0.377039 0.00850641 -0.132831 2 253 255
0.0719917 0.0176255 -0.0708468 4 251 255
0.0719744 0.0180982 -0.0404663 4 251 255
0.071955 0.0185967 -0.00841641 4 251 255
0.0719374 0.018856 0.00825059 4 251 255
0.0719261 0.019123 0.0254158 4 251 255
0.0719032 0.0196805 0.0612507 5 250 255
0.071892 0.0199716 0.0799661 5 250 255
0.0718804 0.0202715 0.0992438 5 250 255
0.0522777 0.0198123 0.0735155 5 250 255
-0.183218 0.0154153 -0.163608 3 252 255
-0.193069 0.020381 0.157467 5 250 255
-0.206426 0.020341 0.157474 5 250 255
-0.216654 0.0159429 -0.123236 4 251 255
-0.226852 0.0152845 -0.163583 3 252 255
-0.273021 0.0151462 -0.163555 3 252 255
-0.305491 0.0150488 -0.163537 3 252 255
0.157118 0.0257658 0.134812 6 249 255
0.0720299 0.0202221 -0.140286 5 250 255
0.0720152 0.0207303 -0.113557 5 250 255
0.0719997 0.0212647 -0.0854505 5 250 255
0.0718686 0.0251541 0.11911 6 249 255
-0.0971732 0.019156 -0.163658 4 251 255
-0.203449 0.0187668 -0.163597 4 251 255
-0.292554 0.0184405 -0.163544 4 251 255
0.339184 0.0255556 -0.118171 6 249 255
0.32131 0.0254408 -0.119825 6 249 255
0.299193 0.0252989 -0.12187 6 249 255
0.281676 0.0251864 -0.12349 6 249 255
0.259997 0.0250472 -0.125494 6 249 255
0.0718563 0.0301877 0.13959 7 248 255
-0.0959497 0.023507 -0.125266 6 249 255
0.221574 0.0286161 -0.129048 7 248 255
0.200553 0.0284603 -0.130992 7 248 255
-0.162826 0.0257939 -0.163621 6 249 255
-0.33436 0.0249373 -0.16352 6 249 255
-0.353422 0.024842 -0.163509 6 249 255
-0.404379 0.0251483 -0.141854 6 249 255
0.241488 0.0325159 -0.130022 8 247 255
0.0909476 0.0309826 -0.153114 7 248 255
0.071892 0.0377242 0.0799661 9 246 255
0.0718804 0.0382907 0.0992438 9 246 255
-0.120126 0.0309391 -0.113818 7 248 255
-0.120537 0.0319378 -0.0797571 8 247 255
-0.135385 0.0293885 -0.163635 7 248 255
-0.253337 0.0287208 -0.163568 7 248 255
-0.376856 0.0288876 -0.134028 7 248 255
0.178413 0.0357344 -0.136316 9 246 255
0.161976 0.0355786 -0.137884 9 246 255
0.13884 0.0354707 -0.136701 9 246 255
0.123334 0.0350119 -0.147672 8 247 255
0.0719835 0.0377018 -0.0558565 9 246 255
0.071975 0.0382073 -0.040464 9 246 255
0.071957 0.0392601 -0.00840855 10 245 255
0.0719352 0.0398068 0.00824213 10 245 255
0.0719246 0.0403707 0.0254101 10 245 255
0.0719032 0.0415477 0.0612507 10 245 255
0.0301144 0.0417312 0.0749106 10 245 255
-0.122291 0.0364032 -0.0578607 9 246 255
-0.11884 0.0391504 0.0251108 10 245 255
-0.123909 0.0403971 0.0640477 10 245 255
-0.124532 0.0419298 0.110831 10 245 255
0.0720299 0.0386057 -0.140286 9 246 255
0.0720152 0.0395759 -0.113557 10 245 255
0.0719997 0.0405962 -0.0854505 10 245 255
0.0718563 0.0487647 0.13959 12 243 255
-0.114045 0.0378464 -0.125255 9 246 255
-0.124113 0.0410507 -0.0350436 10 245 255
-0.125974 0.0456551 0.0921503 11 244 255
-0.373492 0.0400733 -0.0137888 10 245 255
-0.373476 0.0391056 -0.0404502 10 245 255
-0.373461 0.0381834 -0.0658541 9 246 255
-0.373447 0.0373038 -0.0900877 9 246 255
-0.373434 0.0364639 -0.113227 9 246 255
0.339275 0.0452211 -0.118005 11 244 255
0.321373 0.0450159 -0.119706 11 244 255
0.156238 0.0537488 0.131834 13 242 255
0.0718686 0.0525948 0.11911 13 242 255
-0.018361 0.0502493 0.0775486 12 243 255
-0.230233 0.0392874 -0.157221 10 245 255
-0.270063 0.0389823 -0.157198 9 246 255
-0.289747 0.0388316 -0.157187 9 246 255
0.221689 0.0477058 -0.128784 12 243 255
-0.199949 0.0429558 -0.157238 10 245 255
0.301306 0.052757 -0.117711 13 242 255
0.201292 0.0513183 -0.129213 13 242 255
0.1018 0.0497776 -0.143002 12 243 255
0.0807049 0.0487094 -0.161812 12 243 255
0.0719663 0.0550325 -0.0246533 14 241 255
0.071914 0.0581931 0.0430728 14 241 255
0.0719032 0.0590415 0.0612507 15 240 255
0.071892 0.0599149 0.0799661 15 240 255
0.0718804 0.0608146 0.0992438 15 240 255
0.0732002 0.0650028 0.18872 16 239 255
0.0254872 0.0592259 0.0741681 15 240 255
-0.00961336 0.0578664 0.0518229 14 241 255
-0.0063283 0.0599523 0.0958774 15 240 255
-0.127228 0.0491586 -0.112017 12 243 255
-0.130052 0.056196 0.039301 14 241 255
-0.398148 0.0453559 -0.141152 11 244 255
0.28175 0.0566209 -0.11481 14 241 255
0.259413 0.0562483 -0.117928 14 241 255
0.241787 0.0559576 -0.120322 14 241 255
0.0719835 0.0575449 -0.0558563 14 241 255
0.071975 0.0583165 -0.040464 14 241 255
0.0719349 0.0607578 0.00824082 15 240 255
0.0719654 0.0663371 0.119527 16 239 255
-0.129055 0.0538145 -0.0914297 13 242 255
-0.129768 0.0555867 -0.0559411 14 241 255
-0.132208 0.0616886 0.0662462 15 240 255
-0.133146 0.0640302 0.113137 16 239 255
-0.250225 0.0493432 -0.15721 12 243 255
-0.374684 0.0496556 -0.126935 12 243 255
0.339051 0.0622092 -0.0944668 15 240 255
0.319807 0.0618099 -0.0982009 15 240 255
0.300818 0.0614167 -0.101869 15 240 255
0.180027 0.0590836 -0.12207 15 240 255
0.0720226 0.0576966 -0.127087 14 241 255
0.0720152 0.0584216 -0.113557 14 241 255
0.0719998 0.0599277 -0.0854504 15 240 255
0.0702239 0.0727144 0.153495 18 237 255
0.0725695 0.0756857 0.208488 19 236 255
0.00747764 0.0677641 0.0732437 17 238 255
-0.131744 0.060624 -0.0330961 15 240 255
-0.13446 0.067429 0.0944122 17 238 255
-0.373492 0.0591559 -0.0137888 15 240 255
-0.373476 0.0577273 -0.0404502 14 241 255
-0.373447 0.0550675 -0.0900877 14 241 255
0.339962 0.0677576 -0.0677382 17 238 255
0.318324 0.0670711 -0.0755925 17 238 255
0.272814 0.0657899 -0.0892581 16 239 255
0.25359 0.0652979 -0.0941694 16 239 255
0.234732 0.0648245 -0.0988241 16 239 255
0.207249 0.0641718 -0.104957 16 239 255
0.154312 0.062972 -0.115762 16 239 255
0.12401 0.0622337 -0.122849 15 240 255
-0.110435 0.0595126 -0.125257 15 240 255
-0.128434 0.0593148 -0.125246 15 240 255
-0.373461 0.0600026 -0.0658541 15 240 255
0.241481 0.0715837 -0.0533473 18 237 255
0.217118 0.0702521 -0.070648 17 238 255
0.196372 0.0694222 -0.0803565 17 238 255
0.176823 0.0687346 -0.0879447 17 238 255
0.153393 0.067979 -0.0959069 17 238 255
0.103035 0.0662549 -0.114674 16 239 255
0.0693894 0.0758797 0.0509017 19 236 255
0.069094 0.076927 0.0682685 19 236 255
0.0687878 0.078003 0.0861105 19 236 255
0.00621851 0.0746891 0.0434278 19 236 255
-0.230233 0.0597852 -0.15722 15 240 255
-0.270063 0.0593209 -0.157198 15 240 255
-0.289747 0.0590915 -0.157187 15 240 255
0.0726835 0.0642268 -0.19971 16 239 255
0.102203 0.0723439 -0.0785073 18 237 255
0.0694574 0.0758028 -0.0181042 19 236 255
0.06888 0.0778011 0.0132486 19 236 255
0.0685876 0.0788424 0.029585 20 235 255
0.0655991 0.0867811 0.154278 22 233 255
-0.134336 0.067393 -0.110215 17 238 255
-0.135205 0.0695701 -0.0760095 17 238 255
-0.138178 0.0770454 0.0414352 19 236 255
-0.199949 0.0635746 -0.157238 16 239 255
-0.373434 0.0642459 -0.113227 16 239 255
0.0750187 0.0706897 -0.155794 18 237 255
0.068977 0.0776246 -0.0517648 19 236 255
0.065835 0.0887048 0.11319 22 233 255
0.0654701 0.0899891 0.13231 23 232 255
0.0214842 0.0871997 0.0994339 22 233 255
-0.140514 0.0830007 0.0684468 21 234 255
-0.402836 0.0660213 -0.132722 16 239 255
0.0726688 0.0728527 -0.175969 18 237 255
0.0793524 0.0754006 -0.141311 19 236 255
0.0685238 0.0793457 -0.0835588 20 235 255
-0.139382 0.0802142 -0.0311397 20 235 255
-0.138928 0.0889642 0.0922251 22 233 255
-0.250225 0.0697611 -0.157209 17 238 255
-0.373492 0.0782385 -0.0137888 20 235 255
-0.38135 0.0701802 -0.125965 17 238 255
0.0680961 0.0809743 -0.113636 20 235 255
0.026735 0.0931763 0.0585052 23 232 255
0.0276136 0.0951344 0.0846779 24 231 255
-0.140465 0.0830182 -0.0458485 21 234 255
-0.373476 0.0800733 -0.0404509 20 235 255
-0.373461 0.0781851 -0.0658541 20 235 255
0.0639595 0.0957391 0.0285479 24 231 255
0.0628371 0.0997359 0.0801432 25 230 255
0.0609751 0.105536 0.15506 27 228 255
-0.121249 0.0809915 -0.12525 20 235 255
-0.139176 0.0807229 -0.12524 20 235 255
-0.414023 0.0780217 -0.106866 19 236 255
0.0710638 0.0850741 -0.156459 21 234 255
0.0639748 0.095799 -0.0230888 24 231 255
0.0632653 0.0983142 0.00800443 25 230 255
0.0609076 0.106725 0.111976 27 228 255
-0.13951 0.0877144 -0.0832821 22 233 255
-0.273354 0.079608 -0.157197 20 235 255
-0.293013 0.0793005 -0.157184 20 235 255
-0.373446 0.0834887 -0.0900974 21 234 255
0.0730592 0.0841915 -0.210001 21 234 255
0.0633091 0.0982668 -0.041952 25 230 255
0.0610566 0.106297 0.0532792 27 228 255
0.0593405 0.112422 0.125919 28 227 255
-0.380312 0.0851179 -0.111479 21 234 255
0.0630132 0.0994256 -0.0742444 25 230 255
-0.413774 0.0898988 -0.0901935 23 232 255
0.0734139 0.0933086 -0.185574 23 232 255
0.0637091 0.0970564 -0.142794 24 231 255
0.0630656 0.0993391 -0.117755 25 230 255
0.0627334 0.100522 -0.104785 25 230 255
-0.375009 0.0951159 -0.0792185 24 231 255
0.0569583 0.121233 0.0742698 31 224 255
0.056483 0.122935 0.0922571 31 224 255
-0.397723 0.0957431 -0.105984 24 231 255
0.0585566 0.115596 -0.027988 29 226 255
0.057716 0.118618 0.00284398 30 225 255
0.0572746 0.120187 0.0188538 30 225 255
0.0548953 0.128707 0.105777 32 223 255
0.0538481 0.132464 0.144106 32 222 255
0.0517293 0.133657 0.156625 34 221 255
0.057983 0.117735 -0.0466713 30 225 255
0.0586242 0.115534 -0.10551 29 226 255
0.0578364 0.118348 -0.0786771 30 225 255
0.0631863 0.113726 -0.157782 29 226 255
0.0532337 0.134916 0.0387094 34 221 255
0.0527214 0.136755 0.0556931 35 220 255
0.0575646 0.119477 -0.137645 30 225 255
0.0532166 0.135061 0.00188839 34 221 255
0.0505885 0.144485 0.0862628 36 219 255
0.0494315 0.148633 0.123403 38 217 255
0.0488264 0.150797 0.142779 38 217 255
0.053196 0.135196 -0.0328244 34 221 255
0.0471075 0.157093 0.157406 40 215 255
0.0531805 0.135325 -0.0655732 34 221 255
0.0491707 0.1498 0.0211794 38 217 255
0.0522522 0.138799 -0.100027 35 220 255
0.0470168 0.157613 0.0500696 40 215 255
0.0464139 0.159779 0.0673471 40 215 255
0.0457943 0.162005 0.0851064 40 214 255
0.0445018 0.166648 0.122152 42 213 255
0.0553514 0.135021 -0.159099 34 221 255
0.0522639 0.138826 -0.12915 35 220 255
0.0477514 0.15504 -0.00322366 39 216 255
0.0427526 0.173 0.136265 44 211 255
0.0420387 0.175537 0.155975 44 211 255
0.0484242 0.152676 -0.052173 39 216 255
0.0454376 0.163542 -0.0306336 40 214 255
0.0416998 0.177006 0.0662382 44 210 255
0.0403124 0.182 0.10217 46 209 255
0.0467281 0.158959 -0.0909684 40 215 255
0.0420311 0.175877 0.0278499 44 210 255
0.0468868 0.158449 -0.120541 40 215 255
0.0438152 0.169559 -0.0708612 43 211 255
0.0413925 0.178285 -0.0123798 44 210 255
0.0456685 0.162933 -0.139623 40 214 255
0.0475589 0.163382 -0.160409 40 214 255
0.0407969 0.18054 -0.0500354 46 209 255
0.0423017 0.175173 -0.10839 44 211 255
0.0402375 0.182655 -0.0853679 46 209 255
0.0417209 0.177339 -0.140292 44 210 255
0.0364708 0.177386 -0.160365 44 210 255
