ply
format ascii 1.0
comment Created by Open3D
element vertex 726
property double x
property double y
property double z
property uchar red
property uchar green
property uchar blue
end_header
0.313982 -0.10504 0.00739515 0 255 255
0.320625 -0.102728 -0.00712466 0 255 255
-0.0113397 -0.105492 0.0675721 0 255 255
0.00595015 -0.104631 0.0678407 0 255 255
0.0138513 -0.104335 0.0668652 0 255 255
0.00985867 -0.10579 0.0525061 0 255 255
0.0745586 -0.0975502 0.110615 0 255 255
0.0831656 -0.096986 0.112294 0 255 255
0.0941821 -0.0965277 0.111442 0 255 255
0.315779 -0.09553 0.000793159 0 255 255
-0.0147685 -0.102432 0.0618994 0 255 255
0.042784 -0.0956522 0.110134 0 255 255
0.0530618 -0.0948241 0.114237 0 255 255
0.0627623 -0.0940904 0.117545 0 255 255
0.0748642 -0.0934539 0.118386 0 255 255
0.0827815 -0.0930467 0.118827 0 255 255
0.0939459 -0.0925655 0.118353 0 255 255
0.096655 -0.0938844 0.101315 0 255 255
0.0016166 -0.0974945 0.0677102 0 255 255
0.00881392 -0.0973537 0.0654711 0 255 255
0.0474875 -0.0912893 0.118366 0 255 255
-0.0151249 -0.0944816 0.068459 0 255 255
-0.00697482 -0.0953327 0.0531524 0 255 255
0.0356741 -0.0888784 0.111725 0 255 255
0.0537568 -0.0872517 0.12245 0 255 255
0.066142 -0.0866202 0.123659 0 255 255
0.0738902 -0.0862813 0.123702 0 255 255
0.0853356 -0.08579 0.123646 0 255 255
0.0926875 -0.0855057 0.123213 0 255 255
0.315779 -0.0854742 0.000793159 0 255 255
-0.0129722 -0.0915027 0.0576649 0 255 255
0.0242318 -0.0857795 0.11291 0 255 255
0.0843328 -0.084843 0.0922126 0 255 255
0.095734 -0.0843971 0.0918368 0 255 255
0.323709 -0.08132 0.00704193 0 255 255
0.035286 -0.0814717 0.117951 0 255 255
0.0465254 -0.0806144 0.123589 0 255 255
0.048794 -0.0970037 -0.103745 0 255 255
0.0587057 -0.0964571 -0.101661 0 255 255
0.0690124 -0.095812 -0.0984372 0 255 255
0.0787131 -0.0952739 -0.0963551 0 255 255
0.0877915 -0.0948514 -0.0955242 0 255 255
0.097578 -0.0950282 -0.103351 0 255 255
0.252405 -0.0809768 0.00524545 0 255 255
0.259849 -0.0805597 0.00690079 0 255 255
0.270874 -0.0799419 0.00935429 0 255 255
0.277955 -0.0795897 0.0103137 0 255 255
0.288296 -0.079121 0.0110865 0 255 255
0.297869 -0.0788744 0.00921762 0 255 255
0.306012 -0.0791075 0.00151914 0 255 255
0.323783 -0.0790715 -0.00776744 0 255 255
0.0550131 -0.0767849 0.124667 0 255 255
0.0632586 -0.0764151 0.125455 0 255 255
0.0748093 -0.0759781 0.125392 0 255 255
0.0860584 -0.0755748 0.125009 0 255 255
0.0933059 -0.0753402 0.124399 0 255 255
0.0475783 -0.0924195 -0.0965004 0 255 255
0.0717383 -0.0911958 -0.0921707 0 255 255
0.13381 -0.0814253 0.0144277 0 255 255
0.0976511 -0.0902356 -0.0926018 0 255 255
0.0931835 -0.091903 -0.114166 0 255 255
0.16095 -0.0810321 0.00515163 0 255 255
0.169217 -0.0805968 0.00687116 0 255 255
0.181456 -0.0799518 0.0094263 0 255 255
0.189272 -0.0795819 0.0104527 0 255 255
0.20076 -0.0790577 0.0116814 0 255 255
0.208325 -0.0787144 0.0124632 0 255 255
0.219561 -0.0782021 0.013657 0 255 255
0.230611 -0.0777074 0.0147027 0 255 255
0.237838 -0.0773971 0.0151936 0 255 255
0.248571 -0.0769364 0.0159228 0 255 255
0.259177 -0.076481 0.0166445 0 255 255
0.273126 -0.0758822 0.0175934 0 255 255
0.28338 -0.0754587 0.0180498 0 255 255
0.293352 -0.0750925 0.0178353 0 255 255
0.309081 -0.0747167 0.0145905 0 255 255
0.0215222 -0.0752238 0.115187 0 255 255
0.087904 -0.0743637 0.0916093 0 255 255
0.0990742 -0.0740072 0.0908356 0 255 255
0.06908 -0.0796777 0.0218491 0 255 255
0.0784345 -0.0791779 0.0242345 0 255 255
0.0904477 -0.0787605 0.0239155 0 255 255
0.0981842 -0.0791027 0.0144957 0 255 255
0.109215 -0.0788474 0.0122724 0 255 255
0.117533 -0.0784884 0.0131056 0 255 255
0.145866 -0.077296 0.0154864 0 255 255
0.15374 -0.0769748 0.015994 0 255 255
0.165429 -0.0764981 0.0167475 0 255 255
0.180791 -0.0758715 0.0177367 0 255 255
0.188378 -0.075562 0.0182267 0 255 255
0.199645 -0.0751022 0.0189571 0 255 255
0.210697 -0.0746662 0.0194458 0 255 255
0.319273 -0.0709064 0.0163603 0 255 255
0.328055 -0.0708636 0.0121716 0 255 255
0.338949 -0.0710997 0.00261372 0 255 255
-0.0896829 -0.0828584 0.000353336 0 255 255
0.0290272 -0.0715289 0.114157 0 255 255
0.0381107 -0.0711011 0.115921 0 255 255
0.0978119 -0.0743861 0.031105 0 255 255
0.108923 -0.0741091 0.0293692 0 255 255
0.118697 -0.0740585 0.0247886 0 255 255
0.219304 -0.0706237 0.0237152 0 255 255
0.230041 -0.0702311 0.0240128 0 255 255
0.24066 -0.0698428 0.024307 0 255 255
0.247674 -0.0695864 0.0245013 0 255 255
0.258099 -0.0692051 0.0247902 0 255 255
0.304599 -0.0676808 0.0232956 0 255 255
0.348547 -0.0674574 0.00263321 0 255 255
-0.148912 -0.0803783 0.00699645 0 255 255
-0.141942 -0.0799797 0.00978583 0 255 255
-0.131215 -0.0795546 0.0109475 0 255 255
-0.120759 -0.0791531 0.0118656 0 255 255
-0.110404 -0.0787551 0.0127814 0 255 255
-0.100142 -0.0783598 0.013703 0 255 255
-0.0899832 -0.0779685 0.0146155 0 255 255
-0.0800719 -0.0775997 0.0152904 0 255 255
-0.0702255 -0.0772307 0.0160041 0 255 255
-0.0600197 -0.0763626 0.0248169 0 255 255
-0.0480894 -0.0757011 0.0292458 0 255 255
0.00950617 -0.0690031 0.108887 0 255 255
0.0480734 -0.0670941 0.119391 0 255 255
0.0609919 -0.0665461 0.121389 0 255 255
0.0689751 -0.0662589 0.121768 0 255 255
0.080301 -0.0659086 0.121356 0 255 255
0.0907905 -0.0656685 0.119572 0 255 255
0.100187 -0.0655844 0.115798 0 255 255
0.0946108 -0.0668846 0.0972536 0 255 255
0.0734307 -0.0710908 0.0389881 0 255 255
0.0829106 -0.0711052 0.0335296 0 255 255
0.130181 -0.0700977 0.0242537 0 255 255
0.138006 -0.0698265 0.0244544 0 255 255
0.149634 -0.0694231 0.0247594 0 255 255
0.161128 -0.0690243 0.0250607 0 255 255
0.168717 -0.068761 0.0252598 0 255 255
0.205805 -0.0674758 0.0262071 0 255 255
0.269088 -0.0653028 0.0274928 0 255 255
0.279239 -0.0649547 0.0276917 0 255 255
0.289162 -0.0646422 0.027423 0 255 255
0.314463 -0.0640286 0.0236946 0 255 255
0.329652 -0.0637705 0.0196239 0 255 255
0.33833 -0.0637404 0.0153465 0 255 255
0.357814 -0.0639372 0.00134748 0 255 255
-0.180303 -0.0769187 0.0126727 0 255 255
-0.167664 -0.0763344 0.0159532 0 255 255
-0.162038 -0.0761136 0.0167239 0 255 255
-0.151058 -0.0756954 0.0180075 0 255 255
-0.140323 -0.0752956 0.019103 0 255 255
-0.130129 -0.0749485 0.0195727 0 255 255
-0.120092 -0.0746118 0.0199469 0 255 255
-0.033671 -0.0684358 0.080592 0 255 255
-0.0243565 -0.0680887 0.0815451 0 255 255
-0.0154997 -0.0677902 0.0819012 0 255 255
0.0184813 -0.0651124 0.110116 0 255 255
0.0784963 -0.0667015 0.04923 0 255 255
0.0927763 -0.066929 0.0373819 0 255 255
0.102641 -0.066872 0.0329501 0 255 255
0.113957 -0.0665816 0.0318082 0 255 255
0.180906 -0.0646961 0.0279905 0 255 255
0.188312 -0.0644555 0.0281281 0 255 255
0.249087 -0.0624864 0.0291747 0 255 255
0.259415 -0.0621543 0.0293076 0 255 255
0.299272 -0.06096 0.0282919 0 255 255
0.347728 -0.060206 0.0148278 0 255 255
0.359006 -0.0602454 0.00792837 0 255 255
-0.194142 -0.0730547 0.0148488 0 255 255
-0.162698 -0.0716963 0.0227011 0 255 255
-0.112066 -0.0700901 0.0245802 0 255 255
-0.102304 -0.0697877 0.0248072 0 255 255
-0.0878187 -0.069339 0.025144 0 255 255
-0.0782669 -0.0690434 0.0253624 0 255 255
-0.071378 -0.0686529 0.0288023 0 255 255
-0.0026859 -0.0622633 0.109349 0 255 255
0.00599837 -0.0619742 0.109922 0 255 255
0.031536 -0.0611276 0.111546 0 255 255
0.0397369 -0.06087 0.111804 0 255 255
0.0476912 -0.0606367 0.111746 0 255 255
0.059661 -0.0602707 0.111935 0 255 255
0.0864362 -0.0595138 0.111217 0 255 255
0.0743465 -0.0623729 0.0649095 0 255 255
0.087906 -0.0626595 0.0521346 0 255 255
0.136208 -0.0624545 0.0293398 0 255 255
0.143918 -0.0622203 0.029433 0 255 255
0.155375 -0.0618724 0.0295711 0 255 255
0.162942 -0.0616426 0.0296612 0 255 255
0.214379 -0.0600802 0.0302859 0 255 255
0.225061 -0.0597562 0.0304079 0 255 255
0.235633 -0.0594348 0.0305402 0 255 255
0.309031 -0.0573809 0.0281804 0 255 255
0.31832 -0.0571993 0.0264298 0 255 255
0.327518 -0.0570278 0.0245425 0 255 255
0.339354 -0.0569017 0.0203629 0 255 255
0.367666 -0.0569506 0.00387019 0 255 255
-0.216061 -0.0695587 0.013584 0 255 255
-0.188069 -0.0683047 0.0228106 0 255 255
-0.181781 -0.0680509 0.0243359 0 255 255
-0.154788 -0.0671769 0.0266472 0 255 255
-0.144561 -0.0668708 0.027031 0 255 255
-0.0533891 -0.0581754 0.147675 0 255 255
-0.043674 -0.05782 0.14931 0 255 255
-0.0350885 -0.0575714 0.149467 0 255 255
-0.0305968 -0.0603612 0.0921832 0 255 255
-0.0075503 -0.0582231 0.121502 0 255 255
-0.00108045 -0.0578566 0.12514 0 255 255
0.00887191 -0.0574384 0.127878 0 255 255
0.0192235 -0.0573031 0.124837 0 255 255
0.0285856 -0.0572754 0.120228 0 255 255
0.0675743 -0.0565973 0.112085 0 255 255
0.0659253 -0.0579189 0.0870285 0 255 255
0.0728999 -0.0582024 0.0776177 0 255 255
0.0843619 -0.0587225 0.0610894 0 255 255
0.12544 -0.0590886 0.0312824 0 255 255
0.182155 -0.057497 0.0313272 0 255 255
0.189497 -0.0572896 0.0313597 0 255 255
0.200414 -0.0569809 0.0314153 0 255 255
0.270285 -0.0550055 0.0317596 0 255 255
0.28034 -0.054723 0.0317735 0 255 255
0.290159 -0.0544735 0.0312703 0 255 255
-0.230612 -0.0656426 0.0153311 0 255 255
-0.202888 -0.0645115 0.0237228 0 255 255
-0.0256441 -0.0534704 0.157064 0 255 255
-0.0129866 -0.0528297 0.163496 0 255 255
-0.00616443 -0.0527458 0.161494 0 255 255
0.00353003 -0.0526701 0.157739 0 255 255
0.0126257 -0.0526524 0.153102 0 255 255
0.0201588 -0.0527951 0.145972 0 255 255
0.0298771 -0.0530275 0.135761 0 255 255
0.0397279 -0.0532569 0.125539 0 255 255
0.0578822 -0.0539268 0.101534 0 255 255
0.0838172 -0.0556168 0.0519105 0 255 255
0.08999 -0.0560276 0.0399203 0 255 255
0.0986848 -0.0561303 0.0329846 0 255 255
0.110264 -0.0558565 0.0323373 0 255 255
0.239688 -0.0524484 0.0323622 0 255 255
0.250064 -0.052173 0.0324091 0 255 255
0.260332 -0.0519005 0.0324556 0 255 255
0.299927 -0.0509313 0.0309274 0 255 255
0.348481 -0.0502377 0.0187042 0 255 255
0.359926 -0.0502088 0.013008 0 255 255
-0.253753 -0.0620638 0.0134003 0 255 255
-0.245513 -0.0617075 0.0168297 0 255 255
-0.0773427 -0.0488428 0.211861 0 255 255
-0.0634058 -0.0484291 0.213437 0 255 255
-0.0550321 -0.0482217 0.213463 0 255 255
-0.188409 -0.0597535 0.0290775 0 255 255
-0.176952 -0.0593983 0.0307111 0 255 255
-0.166675 -0.0591355 0.0309266 0 255 255
-0.0421962 -0.048862 0.192081 0 255 255
-0.0304369 -0.0483588 0.196857 0 255 255
-0.020513 -0.0482569 0.193671 0 255 255
-0.011291 -0.048214 0.189555 0 255 255
-0.00136417 -0.048369 0.180623 0 255 255
0.00824666 -0.0485602 0.171057 0 255 255
0.0283201 -0.0491745 0.146272 0 255 255
0.0456012 -0.0501449 0.115065 0 255 255
0.0491399 -0.0504068 0.107259 0 255 255
0.0554351 -0.0510347 0.0897572 0 255 255
0.0594315 -0.051269 0.0823186 0 255 255
0.0649408 -0.0516858 0.0699675 0 255 255
0.0680352 -0.0520378 0.0603941 0 255 255
0.0694975 -0.0525846 0.047363 0 255 255
0.0708006 -0.053165 0.0336705 0 255 255
0.0789303 -0.0529652 0.0336617 0 255 255
0.118231 -0.0520445 0.0326097 0 255 255
0.12991 -0.0517546 0.0326592 0 255 255
0.137623 -0.0515634 0.0326887 0 255 255
0.149088 -0.0512789 0.0327374 0 255 255
0.160427 -0.0509976 0.032784 0 255 255
0.167918 -0.0508117 0.0328164 0 255 255
0.208118 -0.0498194 0.0328687 0 255 255
0.218808 -0.0495559 0.0328743 0 255 255
0.229386 -0.0492951 0.0328809 0 255 255
0.309465 -0.047452 0.0300025 0 255 255
0.318718 -0.0473058 0.0281758 0 255 255
0.32787 -0.0471707 0.0261573 0 255 255
0.339764 -0.0470473 0.0223688 0 255 255
0.368216 -0.0470306 0.00707847 0 255 255
-0.272151 -0.0583021 0.0110751 0 255 255
-0.240484 -0.0570806 0.0229746 0 255 255
-0.228108 -0.0567098 0.0250656 0 255 255
-0.22198 -0.0565261 0.0261009 0 255 255
-0.0557297 -0.0442915 0.228363 0 255 255
-0.0464197 -0.0440204 0.229748 0 255 255
-0.0369988 -0.0439541 0.226155 0 255 255
-0.0265654 -0.0440299 0.21859 0 255 255
-0.0196465 -0.0441612 0.211627 0 255 255
-0.0101259 -0.0443188 0.202603 0 255 255
-0.00182194 -0.0445846 0.191649 0 255 255
0.0143277 -0.0454489 0.162003 0 255 255
0.019096 -0.0458118 0.150663 0 255 255
0.0254272 -0.0463181 0.135019 0 255 255
0.0284452 -0.046594 0.126732 0 255 255
-0.0184638 -0.0515444 0.0336845 0 255 255
-0.00964719 -0.0513424 0.0336806 0 255 255
-0.000913918 -0.0511434 0.0336514 0 255 255
0.00775135 -0.050946 0.0336214 0 255 255
0.0206231 -0.0506529 0.033574 0 255 255
0.0291219 -0.0504593 0.0335423 0 255 255
0.0375564 -0.0502672 0.0335113 0 255 255
0.050089 -0.0499818 0.0334663 0 255 255
0.0583652 -0.0497933 0.0334366 0 255 255
0.17916 -0.0470358 0.0331491 0 255 255
0.190158 -0.0467831 0.033162 0 255 255
0.201038 -0.0465331 0.0331751 0 255 255
0.270706 -0.0449324 0.033259 0 255 255
0.280729 -0.0447045 0.0332133 0 255 255
0.290523 -0.0445024 0.0326738 0 255 255
-0.0724391 -0.0400272 0.263068 0 255 255
-0.0610833 -0.0398294 0.261945 0 255 255
-0.0503709 -0.0398596 0.255265 0 255 255
-0.0410456 -0.0399876 0.246813 0 255 255
-0.0324734 -0.0401742 0.237255 0 255 255
-0.0110798 -0.0413266 0.195588 0 255 255
-0.00920618 -0.0420796 0.17503 0 255 255
-0.101334 -0.0495003 0.0333012 0 255 255
-0.0918516 -0.0492989 0.033303 0 255 255
-0.0824441 -0.049099 0.0333074 0 255 255
-0.0684753 -0.0488023 0.0333136 0 255 255
-0.0592573 -0.0486065 0.0333158 0 255 255
-0.0501131 -0.0484123 0.033318 0 255 255
-0.0410401 -0.0482195 0.0333226 0 255 255
-0.0320399 -0.0480283 0.0333259 0 255 255
0.0706771 -0.0458441 0.0334207 0 255 255
0.078817 -0.045671 0.0334287 0 255 255
0.0909132 -0.0454137 0.0334427 0 255 255
0.0989011 -0.0452438 0.0334503 0 255 255
0.110772 -0.0449914 0.0334613 0 255 255
0.229614 -0.0424639 0.0335828 0 255 255
0.240074 -0.0422414 0.0335936 0 255 255
0.250426 -0.0420212 0.0336056 0 255 255
0.260667 -0.0418038 0.0336056 0 255 255
0.300133 -0.0410373 0.0317564 0 255 255
0.348265 -0.0405617 0.017593 0 255 255
0.359519 -0.0405862 0.0107626 0 255 255
-0.0877653 -0.0359279 0.296797 0 255 255
-0.0809565 -0.0358495 0.295256 0 255 255
-0.07066 -0.0358861 0.288556 0 255 255
-0.0611797 -0.0359735 0.280873 0 255 255
-0.0540764 -0.0362108 0.270273 0 255 255
-0.0410749 -0.0371529 0.236559 0 255 255
-0.196298 -0.0474347 0.0321805 0 255 255
-0.18528 -0.0471851 0.033151 0 255 255
-0.174746 -0.0469625 0.0336241 0 255 255
-0.164654 -0.0467651 0.0336329 0 255 255
-0.154647 -0.0465694 0.0336412 0 255 255
-0.144725 -0.0463754 0.0336481 0 255 255
-0.134884 -0.0461829 0.0336563 0 255 255
-0.125125 -0.0459921 0.0336626 0 255 255
-0.115445 -0.0458027 0.0336713 0 255 255
0.0544209 -0.0424801 0.0338144 0 255 255
0.118744 -0.0412256 0.033767 0 255 255
0.130377 -0.0409992 0.0337425 0 255 255
0.138062 -0.0408497 0.0337272 0 255 255
0.149485 -0.0406274 0.0337038 0 255 255
0.160784 -0.0404076 0.0336804 0 255 255
0.168249 -0.0402624 0.0336642 0 255 255
0.208365 -0.0394819 0.0335791 0 255 255
0.219037 -0.0392743 0.0335559 0 255 255
0.321706 -0.0374948 0.0271965 0 255 255
0.327734 -0.0374361 0.0255328 0 255 255
0.339328 -0.0373975 0.0202362 0 255 255
-0.108026 -0.0325828 0.314771 0 255 255
-0.0992832 -0.032413 0.3152 0 255 255
-0.0911126 -0.0322699 0.315121 0 255 255
-0.0818574 -0.0322077 0.311946 0 255 255
-0.306965 -0.045802 0.0161671 0 255 255
-0.291674 -0.0453806 0.0207584 0 255 255
-0.27852 -0.0450701 0.0231026 0 255 255
-0.272029 -0.0449175 0.0242417 0 255 255
-0.258831 -0.0445958 0.0269067 0 255 255
-0.252292 -0.044436 0.0282392 0 255 255
-0.240421 -0.044181 0.0295774 0 255 255
-0.228944 -0.0439438 0.0305834 0 255 255
-0.217722 -0.0437168 0.0314135 0 255 255
-0.212181 -0.0436058 0.0317911 0 255 255
-0.10557 -0.0416305 0.0340818 0 255 255
-0.0960726 -0.0414618 0.0340604 0 255 255
-0.0866494 -0.0412944 0.0340421 0 255 255
-0.0773032 -0.0411284 0.0340225 0 255 255
-0.0634232 -0.0408818 0.0339943 0 255 255
-0.0542625 -0.040719 0.0339748 0 255 255
-0.0451729 -0.0405575 0.033958 0 255 255
-0.0361562 -0.0403973 0.0339395 0 255 255
-0.0272091 -0.0402383 0.0339235 0 255 255
-0.0139225 -0.0400023 0.033895 0 255 255
-0.00515157 -0.0398465 0.0338753 0 255 255
0.00355381 -0.0396918 0.0338599 0 255 255
0.0164822 -0.0394622 0.0338307 0 255 255
0.0250208 -0.0393104 0.0338159 0 255 255
0.0334914 -0.03916 0.0337964 0 255 255
0.0460796 -0.0389363 0.0337735 0 255 255
0.179293 -0.0365697 0.0334999 0 255 255
0.190274 -0.0363746 0.0334777 0 255 255
0.19753 -0.0362456 0.0334644 0 255 255
0.270647 -0.0349552 0.0330515 0 255 255
0.280655 -0.0347803 0.0329403 0 255 255
0.290433 -0.0346258 0.0323276 0 255 255
0.309382 -0.0343745 0.0296557 0 255 255
0.350308 -0.0342211 0.0118585 0 255 255
0.357916 -0.0344077 0.0019111 0 255 255
-0.335315 -0.0420738 0.0101426 0 255 255
-0.326438 -0.0418304 0.0135631 0 255 255
0.0665297 -0.0349118 0.0333078 0 255 255
0.0746754 -0.0347817 0.0332628 0 255 255
0.0827611 -0.0346525 0.0332191 0 255 255
0.0947763 -0.0344606 0.0331514 0 255 255
0.102714 -0.0343339 0.0331082 0 255 255
0.218657 -0.0324833 0.0324234 0 255 255
0.229217 -0.0323148 0.03236 0 255 255
0.239668 -0.032148 0.0322975 0 255 255
0.250021 -0.031982 0.0322642 0 255 255
0.260258 -0.0318186 0.0322027 0 255 255
0.299756 -0.0312389 0.0302399 0 255 255
-0.352857 -0.0380657 0.00375295 0 255 255
-0.288598 -0.0361028 0.0432394 0 255 255
-0.282085 -0.0359794 0.0443618 0 255 255
-0.270521 -0.0359591 0.0387666 0 255 255
-0.262704 -0.0361084 0.0287687 0 255 255
-0.256997 -0.0360177 0.0290869 0 255 255
-0.245069 -0.03581 0.0304405 0 255 255
-0.233892 -0.0356332 0.0310296 0 255 255
-0.222824 -0.0354582 0.031612 0 255 255
-0.217332 -0.0353714 0.0318998 0 255 255
-0.206454 -0.0352002 0.0324392 0 255 255
-0.195751 -0.0350341 0.0328825 0 255 255
-0.185153 -0.0348697 0.0333157 0 255 255
-0.174784 -0.0347133 0.0335733 0 255 255
-0.164735 -0.0345695 0.0335249 0 255 255
-0.154771 -0.034427 0.0334737 0 255 255
-0.144887 -0.0342856 0.0334243 0 255 255
-0.135084 -0.0341454 0.0333759 0 255 255
-0.125363 -0.0340064 0.0333244 0 255 255
-0.115723 -0.0338687 0.0332714 0 255 255
-0.0190224 -0.0324867 0.032738 0 255 255
-0.0102229 -0.032361 0.0326893 0 255 255
-0.00149119 -0.0322362 0.0326409 0 255 255
0.0114812 -0.0320508 0.0325701 0 255 255
0.0200462 -0.0319284 0.0325218 0 255 255
0.028546 -0.031807 0.032474 0 255 255
0.0411773 -0.0316264 0.0324071 0 255 255
0.0495164 -0.0315073 0.0323582 0 255 255
0.114059 -0.0305841 0.0320349 0 255 255
0.125725 -0.0304182 0.031938 0 255 255
0.133442 -0.0303079 0.0318961 0 255 255
0.144927 -0.0301429 0.0318666 0 255 255
0.156272 -0.0299809 0.031801 0 255 255
0.163757 -0.0298747 0.0317287 0 255 255
0.207639 -0.0292476 0.0314884 0 255 255
0.351254 -0.0279967 0.000129163 0 255 255
-0.309454 -0.0313861 0.0750083 0 255 255
-0.29852 -0.0312504 0.0748542 0 255 255
-0.291754 -0.0312704 0.0702652 0 255 255
-0.288011 -0.0314063 0.0623277 0 255 255
-0.303238 -0.0325705 0.020391 0 255 255
-0.296036 -0.0324374 0.0221798 0 255 255
-0.282695 -0.0322095 0.0246865 0 255 255
-0.276331 -0.0321061 0.0256523 0 255 255
-0.106947 -0.0298002 0.0320681 0 255 255
-0.0974481 -0.0296803 0.032018 0 255 255
-0.0833399 -0.0295023 0.0319469 0 255 255
-0.074029 -0.0293848 0.0318985 0 255 255
-0.0647897 -0.0292682 0.0318542 0 255 255
-0.0556237 -0.0291524 0.0318097 0 255 255
-0.04653 -0.0290376 0.0317652 0 255 255
-0.0330253 -0.0288672 0.0316957 0 255 255
0.0777052 -0.0274697 0.0311405 0 255 255
0.0897948 -0.0273172 0.0310781 0 255 255
0.0977801 -0.0272164 0.0310365 0 255 255
0.174514 -0.0262479 0.0306519 0 255 255
0.185549 -0.0261091 0.0305774 0 255 255
0.192837 -0.0260177 0.0305182 0 255 255
0.269764 -0.0250521 0.0299032 0 255 255
0.279813 -0.024926 0.0298184 0 255 255
0.289634 -0.0248142 0.0292447 0 255 255
0.308521 -0.0246478 0.0260415 0 255 255
0.317606 -0.0245956 0.0232963 0 255 255
0.329344 -0.0245644 0.0181831 0 255 255
0.337743 -0.0245894 0.0124753 0 255 255
-0.323115 -0.0267133 0.106866 0 255 255
-0.315582 -0.0267026 0.103252 0 255 255
-0.311711 -0.0268079 0.0958678 0 255 255
-0.343396 -0.0289262 0.00766867 0 255 255
-0.334281 -0.0287531 0.0112837 0 255 255
-0.3264 -0.0286195 0.013606 0 255 255
-0.246398 -0.0274309 0.0288398 0 255 255
-0.23537 -0.0273015 0.0292227 0 255 255
-0.224446 -0.0271733 0.0296019 0 255 255
-0.213624 -0.0270463 0.0299783 0 255 255
-0.202902 -0.0269205 0.0303516 0 255 255
-0.192279 -0.0267958 0.0307219 0 255 255
-0.181749 -0.026672 0.031096 0 255 255
-0.171517 -0.026557 0.0311979 0 255 255
-0.161481 -0.0264471 0.0311542 0 255 255
-0.151528 -0.0263382 0.0311095 0 255 255
-0.141656 -0.0262301 0.0310658 0 255 255
-0.131875 -0.0261232 0.0310086 0 255 255
-0.122182 -0.0260176 0.0309403 0 255 255
0.0605735 -0.0240264 0.0296345 0 255 255
0.0687755 -0.023937 0.0295758 0 255 255
0.203035 -0.0224743 0.028611 0 255 255
0.213784 -0.0223572 0.0285342 0 255 255
0.224421 -0.0222413 0.0284582 0 255 255
0.234949 -0.0221266 0.0283831 0 255 255
0.245368 -0.0220131 0.0283087 0 255 255
0.255681 -0.0219007 0.0282343 0 255 255
0.298795 -0.0214622 0.0263709 0 255 255
0.34186 -0.0214933 0.00111055 0 255 255
-0.348163 -0.0225084 0.126263 0 255 255
-0.337269 -0.0224123 0.12593 0 255 255
-0.315154 -0.0241158 0.0133475 0 255 255
-0.307105 -0.0239955 0.0160081 0 255 255
-0.266365 -0.0234718 0.0244474 0 255 255
-0.25387 -0.0233228 0.0263501 0 255 255
-0.109227 -0.0219313 0.0287329 0 255 255
-0.0996998 -0.0218433 0.0286747 0 255 255
-0.0902505 -0.0217561 0.0286139 0 255 255
-0.0808706 -0.0216694 0.0285624 0 255 255
-0.0715746 -0.0215837 0.0284967 0 255 255
-0.0623618 -0.021499 0.0284158 0 255 255
-0.0486774 -0.0213732 0.0282957 0 255 255
-0.0396409 -0.0212901 0.0282199 0 255 255
-0.0306779 -0.0212077 0.028139 0 255 255
-0.0217832 -0.021126 0.0280598 0 255 255
-0.00856179 -0.0210043 0.0279549 0 255 255
0.000166357 -0.020924 0.0278823 0 255 255
0.00882614 -0.0208444 0.0278069 0 255 255
0.0216894 -0.0207262 0.0276883 0 255 255
0.0301884 -0.0206481 0.0276179 0 255 255
0.0386219 -0.0205705 0.0275451 0 255 255
0.0511532 -0.0204553 0.0274349 0 255 255
0.107827 -0.0199343 0.0269436 0 255 255
0.119598 -0.0198261 0.026842 0 255 255
0.131242 -0.019719 0.0267413 0 255 255
0.138937 -0.0196482 0.026678 0 255 255
0.150375 -0.019543 0.026583 0 255 255
0.157932 -0.0194735 0.0265183 0 255 255
0.319335 -0.0181336 0.0166363 0 255 255
0.327931 -0.0181389 0.0115922 0 255 255
-0.320688 -0.0199502 0.00061512 0 255 255
-0.293574 -0.0195835 0.0121049 0 255 255
-0.285665 -0.0194858 0.0147838 0 255 255
0.0577543 -0.016733 0.0240338 0 255 255
0.070083 -0.0166407 0.023895 0 255 255
0.0782269 -0.0165797 0.0238035 0 255 255
0.0903315 -0.0164891 0.0236674 0 255 255
0.0983281 -0.0164292 0.0235777 0 255 255
0.167767 -0.0159093 0.0227994 0 255 255
0.178915 -0.0158259 0.0226747 0 255 255
0.189947 -0.0157433 0.0225512 0 255 255
0.200865 -0.0156615 0.0224292 0 255 255
0.20808 -0.0156075 0.0223485 0 255 255
0.21881 -0.0155272 0.0222286 0 255 255
0.229431 -0.0154477 0.0221101 0 255 255
0.239943 -0.0153689 0.0219929 0 255 255
0.250349 -0.015291 0.0218769 0 255 255
0.26065 -0.0152139 0.0217621 0 255 255
0.270847 -0.0151376 0.0216483 0 255 255
0.277589 -0.0150871 0.0215739 0 255 255
0.287547 -0.0150163 0.0211895 0 255 255
0.306452 -0.014925 0.0173562 0 255 255
0.325413 -0.0150233 -0.000159442 0 255 255
-0.308287 -0.0154317 0.00167531 0 255 255
-0.302197 -0.0153905 0.00213283 0 255 255
-0.284165 -0.0152693 0.00343519 0 255 255
-0.265229 -0.0150561 0.0127558 0 255 255
-0.256757 -0.0149669 0.0163558 0 255 255
-0.243848 -0.014863 0.0188642 0 255 255
-0.23281 -0.0147934 0.01924 0 255 255
-0.227309 -0.0147584 0.0194518 0 255 255
-0.216386 -0.0146889 0.0198722 0 255 255
-0.205565 -0.0146201 0.0202886 0 255 255
-0.194844 -0.0145519 0.0207013 0 255 255
-0.184224 -0.0144844 0.02111 0 255 255
-0.173868 -0.0144209 0.0212911 0 255 255
-0.163801 -0.014362 0.0212024 0 255 255
-0.153816 -0.0143036 0.0211133 0 255 255
-0.143912 -0.0142457 0.0210247 0 255 255
-0.134088 -0.0141883 0.0209369 0 255 255
-0.124343 -0.0141313 0.0208498 0 255 255
-0.114686 -0.014075 0.0207482 0 255 255
-0.105111 -0.0140192 0.0206405 0 255 255
-0.0956109 -0.0139639 0.0205336 0 255 255
-0.0861857 -0.013909 0.0204276 0 255 255
-0.076838 -0.0138547 0.0203165 0 255 255
-0.0629491 -0.0137738 0.0201573 0 255 255
-0.0537794 -0.0137205 0.0200523 0 255 255
-0.0446806 -0.0136675 0.0199481 0 255 255
-0.0356517 -0.013615 0.0198447 0 255 255
-0.0266921 -0.0135628 0.019742 0 255 255
-0.0133805 -0.0134853 0.0195894 0 255 255
-0.00459027 -0.0134342 0.0194887 0 255 255
0.00413352 -0.0133834 0.0193887 0 255 255
0.0127916 -0.013333 0.0192896 0 255 255
0.0256572 -0.0132581 0.0191421 0 255 255
0.0341542 -0.0132087 0.0190448 0 255 255
0.158192 -0.0124868 0.0176138 0 255 255
0.16948 -0.0124211 0.0174845 0 255 255
0.18065 -0.0123561 0.0173566 0 255 255
0.188032 -0.0123132 0.0172725 0 255 255
0.310002 -0.011727 0.00440997 0 255 255
-0.326613 -0.0111099 0.000448942 0 255 255
-0.272254 -0.010849 0.00434899 0 255 255
-0.260628 -0.0107942 0.00505865 0 255 255
-0.249433 -0.0107442 0.00537378 0 255 255
-0.238351 -0.0106948 0.00567502 0 255 255
-0.22767 -0.0106501 0.00559372 0 255 255
-0.22081 -0.010606 0.00753242 0 255 255
-0.207863 -0.0105276 0.0105819 0 255 255
-0.202176 -0.010499 0.0111586 0 255 255
-0.190877 -0.010442 0.0123257 0 255 255
-0.0818995 -0.00997835 0.0124502 0 255 255
-0.0678986 -0.00992018 0.0122844 0 255 255
-0.058655 -0.00988178 0.0121749 0 255 255
-0.0494826 -0.00984368 0.0120664 0 255 255
-0.0403807 -0.00980586 0.0119587 0 255 255
-0.031351 -0.00976838 0.0118476 0 255 255
-0.022387 -0.00973113 0.0117425 0 255 255
-0.00906855 -0.00967579 0.0115862 0 255 255
-0.000273287 -0.00963925 0.0114832 0 255 255
0.00845557 -0.00960298 0.0113807 0 255 255
0.0214266 -0.00954908 0.0112286 0 255 255
0.0299932 -0.00951348 0.0111281 0 255 255
0.0384964 -0.00947815 0.0110283 0 255 255
0.0511332 -0.00942564 0.0108801 0 255 255
0.0594802 -0.00939096 0.0107822 0 255 255
0.0677564 -0.00935672 0.0106649 0 255 255
0.0800292 -0.00930643 0.0104299 0 255 255
0.088138 -0.0092732 0.0102744 0 255 255
0.100193 -0.0092238 0.0100434 0 255 255
0.108162 -0.00919109 0.00989759 0 255 255
0.120006 -0.00914254 0.0096724 0 255 255
0.127833 -0.00911046 0.00952363 0 255 255
0.139475 -0.00906266 0.00931263 0 255 255
0.150991 -0.00901547 0.00909168 0 255 255
0.158602 -0.00898428 0.00894588 0 255 255
0.199537 -0.00881654 0.00816077 0 255 255
0.210437 -0.00877186 0.00795251 0 255 255
0.217644 -0.00874231 0.00781697 0 255 255
0.228363 -0.00869835 0.00761545 0 255 255
0.238975 -0.00865484 0.00741589 0 255 255
0.249482 -0.00861175 0.00721848 0 255 255
0.259884 -0.0085691 0.0070228 0 255 255
0.270184 -0.00852686 0.00682926 0 255 255
0.280388 -0.00848484 0.00665945 0 255 255
0.290196 -0.00845357 0.00531489 0 255 255
-0.31415 -0.00662926 0.00151265 0 255 255
-0.301944 -0.00659395 0.00242448 0 255 255
-0.289913 -0.00655937 0.00327444 0 255 255
-0.278039 -0.00652541 0.00407702 0 255 255
-0.209422 -0.00636148 0.00172758 0 255 255
0.162759 -0.00542181 -9.36985e-05 0 255 255
-0.326349 -0.0022213 0.000746667 0 255 255
-0.272043 -0.00216925 0.00460094 0 255 255
-0.260592 -0.00215875 0.00510144 0 255 255
-0.249426 -0.00214884 0.00538278 0 255 255
-0.239038 -0.00214089 0.00481784 0 255 255
-0.229259 -0.00213448 0.00358421 0 255 255
-0.220305 -0.00213029 0.0013721 0 255 255
-0.313759 0.00662617 0.0019592 1 254 255
-0.301534 0.00659068 0.00289941 1 254 255
-0.289548 0.00655643 0.00370169 1 254 255
-0.277686 0.00652253 0.00449657 1 254 255
-0.332164 0.0111313 0.000731468 2 253 255
-0.271898 0.0108442 0.00477451 2 253 255
-0.260694 0.0107951 0.00497788 2 253 255
-0.2504 0.0107575 0.00418442 2 253 255
-0.240708 0.0107275 0.00273389 2 253 255
-0.319642 0.0154978 0.00180054 3 252 255
-0.307319 0.0154139 0.00278735 3 252 255
-0.295272 0.0153335 0.00359637 3 252 255
-0.283378 0.0152545 0.00436449 3 252 255
-0.338143 0.0200843 0.000564575 5 250 255
-0.331897 0.0200301 0.00103045 5 250 255
-0.271838 0.0195181 0.0048461 4 251 255
-0.261247 0.0194447 0.00430757 4 251 255
-0.251471 0.01939 0.00286657 4 251 255
-0.319381 0.0243462 0.00209701 6 249 255
-0.307061 0.0242144 0.00308341 6 249 255
-0.29502 0.0240883 0.0038898 6 249 255
-0.283315 0.0239696 0.00443929 6 249 255
-0.337873 0.0290016 0.000864506 7 248 255
-0.33163 0.0289234 0.00132912 7 248 255
-0.272331 0.0282101 0.00425696 7 248 255
-0.262323 0.0281248 0.00300169 7 248 255
-0.319015 0.0331851 0.00251126 8 247 255
-0.306805 0.0330096 0.00337827 8 247 255
-0.294864 0.0328414 0.00407135 8 247 255
-0.283253 0.0326834 0.00451183 8 247 255
-0.343876 0.0380162 0.000698507 9 246 255
-0.331363 0.0378112 0.00162762 9 246 255
-0.273823 0.0413066 0.00247037 10 245 255
-0.318572 0.046435 0.00301319 11 244 255
-0.312479 0.0463132 0.00341868 11 244 255
-0.300618 0.0460842 0.00395817 11 244 255
-0.289433 0.0458887 0.00383723 11 244 255
-0.349767 0.0515492 0.000686765 13 242 255
-0.337199 0.0512709 0.00161278 13 242 255
-0.280546 0.0501827 0.00109714 12 243 255
-0.324434 0.0554085 0.00290209 14 241 255
-0.31234 0.0551257 0.00357777 14 241 255
-0.300775 0.0548725 0.00377673 14 241 255
-0.290427 0.0546954 0.00267148 14 241 255
-0.355825 0.06066 0.000522077 15 240 255
-0.343196 0.0603318 0.00144905 15 240 255
-0.336763 0.0601574 0.00209653 15 240 255
-0.324171 0.0642542 0.00319827 16 239 255
-0.312272 0.0639407 0.00365478 16 239 255
-0.301596 0.0637148 0.00282741 16 239 255
-0.355549 0.069625 0.000822067 17 238 255
-0.342721 0.0692323 0.00197291 17 238 255
-0.336371 0.0690385 0.00253177 17 238 255
-0.324101 0.0731108 0.00327736 18 237 255
-0.312811 0.0728065 0.00304043 18 237 255
-0.361634 0.0787986 0.000657201 20 235 255
-0.348728 0.078352 0.00182515 20 235 255
-0.342322 0.0781299 0.00241297 20 235 255
-0.361314 0.0877728 0.00100309 22 233 255
-0.330211 0.0866277 0.0029158 22 233 255
-0.319953 0.0863763 0.00144809 22 233 255
-0.367608 0.0925159 0.00064218 23 232 255
-0.34815 0.0917237 0.00245816 23 232 255
-0.342025 0.0914926 0.00274032 23 232 255
-0.331211 0.0956233 0.00179738 24 231 255
-0.360612 0.101197 0.00176263 25 230 255
-0.348035 0.100659 0.00258428 25 230 255
-0.342236 0.100443 0.00250792 25 230 255
-0.367561 0.106049 0.000692725 27 228 255
