ply
format ascii 1.0
comment Created by Open3D
element vertex 915
property double x
property double y
property double z
property uchar red
property uchar green
property uchar blue
end_header
-0.111787 -0.365598 -0.101707 0 255 255
-0.120236 -0.362352 -0.101697 0 255 255
-0.128537 -0.359164 -0.101687 0 255 255
-0.144164 -0.353198 -0.101452 0 255 255
-0.148973 -0.353198 -0.0906653 0 255 255
-0.153782 -0.353198 -0.0798785 0 255 255
-0.157388 -0.353199 -0.0717884 0 255 255
-0.162197 -0.353199 -0.0610016 0 255 255
-0.167006 -0.353199 -0.0502148 0 255 255
-0.170613 -0.353199 -0.0421246 0 255 255
-0.175422 -0.353199 -0.0313377 0 255 255
-0.180231 -0.353199 -0.0205509 0 255 255
-0.183837 -0.3532 -0.0124607 0 255 255
-0.188646 -0.3532 -0.00167388 0 255 255
-0.193455 -0.3532 0.00911304 0 255 255
-0.196102 -0.353666 0.0177697 0 255 255
-0.196114 -0.355422 0.0280462 0 255 255
-0.196126 -0.357196 0.0384251 0 255 255
-0.196138 -0.358988 0.0489082 0 255 255
-0.19615 -0.360798 0.059497 0 255 255
-0.196162 -0.362626 0.0701931 0 255 255
-0.196175 -0.364473 0.0809981 0 255 255
-0.196183 -0.365714 0.0882629 0 255 255
-0.196196 -0.367593 0.0992531 0 255 255
-0.141215 -0.353198 -0.0906711 0 255 255
-0.146064 -0.353198 -0.0797932 0 255 255
-0.176374 -0.3532 -0.0118065 0 255 255
-0.181223 -0.3532 -0.00092867 0 255 255
-0.186073 -0.3532 0.00994933 0 255 255
-0.0944251 -0.366037 -0.101726 0 255 255
-0.136993 -0.353198 -0.0824491 0 255 255
-0.141884 -0.353199 -0.0714787 0 255 255
-0.146775 -0.353199 -0.0605083 0 255 255
-0.150443 -0.353199 -0.0522805 0 255 255
-0.155333 -0.353199 -0.04131 0 255 255
-0.160224 -0.353199 -0.0303395 0 255 255
-0.163892 -0.353199 -0.0221117 0 255 255
-0.177342 -0.3532 0.00805718 0 255 255
-0.182233 -0.3532 0.0190277 0 255 255
-0.187123 -0.3532 0.0299982 0 255 255
-0.196162 -0.356557 0.0701931 0 255 255
-0.196196 -0.36144 0.0992531 0 255 255
-0.0855047 -0.366262 -0.101737 0 255 255
-0.111787 -0.35642 -0.101707 0 255 255
-0.1253 -0.353198 -0.0906829 0 255 255
-0.147497 -0.353199 -0.0408922 0 255 255
-0.15243 -0.353199 -0.0298277 0 255 255
-0.156129 -0.353199 -0.0215291 0 255 255
-0.161062 -0.3532 -0.0104645 0 255 255
-0.168855 -0.351868 -0.000956267 0 255 255
-0.183259 -0.3532 0.0393265 0 255 255
-0.186959 -0.353201 0.0476252 0 255 255
-0.196175 -0.355323 0.0809981 0 255 255
-0.196183 -0.356533 0.0882629 0 255 255
-0.0764186 -0.366492 -0.101747 0 255 255
-0.117136 -0.353198 -0.090689 0 255 255
-0.120867 -0.353198 -0.0823187 0 255 255
-0.125843 -0.353199 -0.0711583 0 255 255
-0.130818 -0.353199 -0.0599979 0 255 255
-0.134549 -0.353199 -0.0516276 0 255 255
-0.164402 -0.3532 0.0153351 0 255 255
-0.168134 -0.3532 0.0237055 0 255 255
-0.173109 -0.3532 0.0348659 0 255 255
-0.176841 -0.3532 0.0432363 0 255 255
-0.184304 -0.353201 0.059977 0 255 255
-0.0671619 -0.366726 -0.101758 0 255 255
-0.0944252 -0.356691 -0.101727 0 255 255
-0.126395 -0.353199 -0.0512926 0 255 255
-0.131414 -0.353199 -0.0400348 0 255 255
-0.135178 -0.353199 -0.0315913 0 255 255
-0.140197 -0.353199 -0.0203335 0 255 255
-0.143961 -0.3532 -0.01189 0 255 255
-0.166583 -0.345184 -0.0099737 0 255 255
-0.160272 -0.3532 0.0246983 0 255 255
-0.164036 -0.3532 0.0331417 0 255 255
-0.172819 -0.353201 0.0528432 0 255 255
-0.180348 -0.353201 0.0697302 0 255 255
-0.184112 -0.353201 0.0781738 0 255 255
-0.0855047 -0.356831 -0.101737 0 255 255
-0.100376 -0.353198 -0.0907014 0 255 255
-0.104173 -0.353198 -0.0821836 0 255 255
-0.109236 -0.353199 -0.0708266 0 255 255
-0.113033 -0.353199 -0.0623088 0 255 255
-0.121894 -0.353199 -0.0424339 0 255 255
-0.126957 -0.353199 -0.0310769 0 255 255
-0.13202 -0.353199 -0.0197198 0 255 255
-0.135817 -0.3532 -0.0112019 0 255 255
-0.153616 -0.3469 -0.00998911 0 255 255
-0.168867 -0.344482 0.00936002 0 255 255
-0.151006 -0.3532 0.0228694 0 255 255
-0.156069 -0.3532 0.0342266 0 255 255
-0.159867 -0.3532 0.0427445 0 255 255
-0.16493 -0.353201 0.0541016 0 255 255
-0.168727 -0.353201 0.0626195 0 255 255
-0.176322 -0.353201 0.0796553 0 255 255
-0.180119 -0.353201 0.088173 0 255 255
-0.185183 -0.353201 0.0995299 0 255 255
-0.0481179 -0.367207 -0.10178 0 255 255
-0.0764186 -0.356973 -0.101747 0 255 255
-0.0917721 -0.353198 -0.0907078 0 255 255
-0.0956032 -0.353198 -0.0821144 0 255 255
-0.100711 -0.353199 -0.0706563 0 255 255
-0.104542 -0.353199 -0.0620628 0 255 255
-0.10965 -0.353199 -0.0506048 0 255 255
-0.12242 -0.353199 -0.0219598 0 255 255
-0.146998 -0.346237 -0.00999749 0 255 255
-0.168857 -0.339786 -0.000957221 0 255 255
-0.151792 -0.3532 0.0439242 0 255 255
-0.155623 -0.353201 0.0525178 0 255 255
-0.160731 -0.353201 0.063976 0 255 255
-0.164563 -0.353201 0.0725694 0 255 255
-0.172226 -0.353201 0.089756 0 255 255
-0.176057 -0.3532 0.0983492 0 255 255
-0.0383202 -0.367455 -0.101791 0 255 255
-0.0671619 -0.357117 -0.101758 0 255 255
-0.0868797 -0.353198 -0.0820438 0 255 255
-0.0920334 -0.353199 -0.070483 0 255 255
-0.0958989 -0.353199 -0.0618124 0 255 255
-0.101053 -0.353199 -0.0502516 0 255 255
-0.104918 -0.353199 -0.041581 0 255 255
-0.110072 -0.353199 -0.0300203 0 255 255
-0.119091 -0.3532 -0.00978884 0 255 255
-0.166589 -0.336137 -0.00997692 0 255 255
-0.13713 -0.3532 0.0306742 0 255 255
-0.140995 -0.3532 0.0393448 0 255 255
-0.147438 -0.353201 0.0537959 0 255 255
-0.156458 -0.3532 0.0740267 0 255 255
-0.160324 -0.3532 0.082697 0 255 255
-0.0283317 -0.367707 -0.101803 0 255 255
-0.0740979 -0.353198 -0.0907209 0 255 255
-0.0870991 -0.353199 -0.0615575 0 255 255
-0.0922997 -0.353199 -0.0498921 0 255 255
-0.0962 -0.353199 -0.041143 0 255 255
-0.1001 -0.353199 -0.032394 0 255 255
-0.105301 -0.353199 -0.0207285 0 255 255
-0.109201 -0.3532 -0.0119794 0 255 255
-0.133482 -0.344882 -0.0100147 0 255 255
-0.168868 -0.335376 0.00935972 0 255 255
-0.131304 -0.3532 0.0375988 0 255 255
-0.136505 -0.3532 0.0492638 0 255 255
-0.143007 -0.3532 0.0638452 0 255 255
-0.146908 -0.3532 0.072594 0 255 255
-0.152109 -0.3532 0.084259 0 255 255
-0.15601 -0.3532 0.0930078 0 255 255
-0.0181466 -0.367964 -0.101814 0 255 255
-0.0481179 -0.357415 -0.10178 0 255 255
-0.0650187 -0.353198 -0.0907277 0 255 255
-0.0689546 -0.353198 -0.0818987 0 255 255
-0.0742027 -0.353199 -0.0701269 0 255 255
-0.0820746 -0.353199 -0.052469 0 255 255
-0.0873226 -0.353199 -0.040697 0 255 255
-0.0912586 -0.353199 -0.031868 0 255 255
-0.0965067 -0.353199 -0.0200962 0 255 255
-0.100443 -0.3532 -0.0112671 0 255 255
-0.104379 -0.3532 -0.00243816 0 255 255
-0.147004 -0.337001 -0.0100008 0 255 255
-0.153624 -0.334671 -0.0099934 0 255 255
-0.168857 -0.330725 -0.000957519 0 255 255
-0.126685 -0.3532 0.047592 0 255 255
-0.131933 -0.3532 0.0593635 0 255 255
-0.13587 -0.3532 0.0681922 0 255 255
-0.142431 -0.353199 0.0829067 0 255 255
-0.00775909 -0.368227 -0.101826 0 255 255
-0.0283317 -0.361052 -0.101803 0 255 255
-0.0557721 -0.353198 -0.0907345 0 255 255
-0.0597444 -0.353198 -0.0818243 0 255 255
-0.0650407 -0.353199 -0.0699439 0 255 255
-0.0690129 -0.353199 -0.0610335 0 255 255
-0.082254 -0.353199 -0.0313325 0 255 255
-0.0862261 -0.353199 -0.0224221 0 255 255
-0.0915225 -0.3532 -0.0105416 0 255 255
-0.0954948 -0.3532 -0.00163126 0 255 255
-0.166595 -0.32709 -0.00998008 0 255 255
-0.115359 -0.353199 0.0429193 0 255 255
-0.12198 -0.353199 0.0577693 0 255 255
-0.127277 -0.353199 0.0696494 0 255 255
-0.13125 -0.353199 0.0785594 0 255 255
-0.137872 -0.353199 0.0934095 0 255 255
0.00283688 -0.368495 -0.101838 0 255 255
-0.0181466 -0.361244 -0.101814 0 255 255
-0.0383202 -0.354272 -0.101791 0 255 255
-0.0463535 -0.353198 -0.0907415 0 255 255
-0.0503628 -0.353198 -0.0817484 0 255 255
-0.0557082 -0.353199 -0.0697574 0 255 255
-0.0597176 -0.353199 -0.0607643 0 255 255
-0.0637267 -0.353199 -0.051771 0 255 255
-0.0690724 -0.353199 -0.0397801 0 255 255
-0.0770907 -0.353199 -0.0217936 0 255 255
-0.0824367 -0.353199 -0.00980276 0 255 255
-0.0864466 -0.353199 -0.000809819 0 255 255
-0.0904565 -0.353199 0.00818315 0 255 255
-0.133485 -0.335517 -0.0100165 0 255 255
-0.168868 -0.326271 0.00935948 0 255 255
-0.110505 -0.353199 0.0531479 0 255 255
-0.117188 -0.353199 0.0681361 0 255 255
-0.126545 -0.353198 0.0891196 0 255 255
-0.130554 -0.353198 0.0981123 0 255 255
-0.00775909 -0.361439 -0.101826 0 255 255
-0.036758 -0.353198 -0.0907487 0 255 255
-0.0408048 -0.353198 -0.081671 0 255 255
-0.0462008 -0.353199 -0.0695675 0 255 255
-0.0502476 -0.353199 -0.0604899 0 255 255
-0.0542944 -0.353199 -0.0514123 0 255 255
-0.0583413 -0.353199 -0.0423346 0 255 255
-0.0637372 -0.353199 -0.0302311 0 255 255
-0.0718321 -0.353199 -0.0120763 0 255 255
-0.0772287 -0.353199 2.69115e-05 0 255 255
-0.0812762 -0.353199 0.00910425 0 255 255
-0.15363 -0.325499 -0.00999665 0 255 255
-0.168857 -0.321664 -0.000957727 0 255 255
-0.100164 -0.353198 0.0514653 0 255 255
-0.105561 -0.353198 0.0635684 0 255 255
-0.112307 -0.353198 0.0786973 0 255 255
-0.116354 -0.353198 0.0877746 0 255 255
-0.121751 -0.353198 0.0998778 0 255 255
0.00283688 -0.361639 -0.101838 0 255 255
-0.0269806 -0.353198 -0.0907559 0 255 255
-0.0310659 -0.353198 -0.0815923 0 255 255
-0.0351511 -0.353198 -0.0724286 0 255 255
-0.0405981 -0.353199 -0.0602104 0 255 255
-0.0446831 -0.353199 -0.0510466 0 255 255
-0.0487689 -0.353199 -0.0418832 0 255 255
-0.0542169 -0.353199 -0.0296653 0 255 255
-0.0583026 -0.353199 -0.0205018 0 255 255
-0.0623885 -0.353198 -0.0113384 0 255 255
-0.0664743 -0.353198 -0.002175 0 255 255
-0.0719221 -0.353198 0.0100428 0 255 255
-0.140294 -0.326966 -0.0100095 0 255 255
-0.0923513 -0.353198 0.0558598 0 255 255
-0.096437 -0.353198 0.0650232 0 255 255
-0.100523 -0.353197 0.0741865 0 255 255
-0.107332 -0.353197 0.0894588 0 255 255
-0.111418 -0.353197 0.0986222 0 255 255
-0.0170161 -0.353198 -0.0907633 0 255 255
-0.0211405 -0.353198 -0.0815119 0 255 255
-0.0252648 -0.353198 -0.0722606 0 255 255
-0.0307643 -0.353199 -0.0599256 0 255 255
-0.0348891 -0.353198 -0.0506745 0 255 255
-0.0390142 -0.353198 -0.0414234 0 255 255
-0.0431391 -0.353198 -0.0321723 0 255 255
-0.0486392 -0.353198 -0.0198375 0 255 255
-0.0568889 -0.353198 -0.00133538 0 255 255
-0.0610139 -0.353198 0.00791574 0 255 255
-0.0665138 -0.353198 0.0202505 0 255 255
-0.160163 -0.317191 -0.0099915 0 255 255
-0.16885 -0.314603 -0.00777999 0 255 255
-0.168869 -0.317165 0.00935924 0 255 255
-0.0857634 -0.353197 0.0634221 0 255 255
-0.0898884 -0.353197 0.0726731 0 255 255
-0.0953882 -0.353197 0.0850079 0 255 255
-0.102263 -0.353197 0.100426 0 255 255
-0.00685906 -0.353198 -0.0907708 0 255 255
-0.0110236 -0.353198 -0.0814303 0 255 255
-0.0151882 -0.353198 -0.0720897 0 255 255
-0.0207415 -0.353198 -0.0596357 0 255 255
-0.0249062 -0.353198 -0.0502953 0 255 255
-0.029071 -0.353198 -0.0409548 0 255 255
-0.0332358 -0.353198 -0.0316143 0 255 255
-0.0374006 -0.353198 -0.0222738 0 255 255
-0.0429536 -0.353197 -0.0098199 0 255 255
-0.0471185 -0.353197 -0.000479519 0 255 255
-0.0512833 -0.353197 0.00886098 0 255 255
-0.055448 -0.353197 0.0182014 0 255 255
-0.076272 -0.353197 0.0649036 0 255 255
-0.0804367 -0.353196 0.074244 0 255 255
-0.0846014 -0.353196 0.0835844 0 255 255
-0.0887662 -0.353196 0.0929248 0 255 255
0.00349516 -0.353198 -0.0907789 0 255 255
-0.000710368 -0.353198 -0.0813473 0 255 255
-0.00491571 -0.353198 -0.0719157 0 255 255
-0.00912112 -0.353198 -0.0624841 0 255 255
-0.0147284 -0.353197 -0.0499086 0 255 255
-0.0189337 -0.353197 -0.040477 0 255 255
-0.0231392 -0.353197 -0.0310454 0 255 255
-0.0273447 -0.353197 -0.0216139 0 255 255
-0.0315501 -0.353197 -0.0121822 0 255 255
-0.0371573 -0.353197 0.000393122 0 255 255
-0.0413628 -0.353197 0.00982472 0 255 255
-0.0455682 -0.353197 0.0192562 0 255 255
-0.0497736 -0.353196 0.0286878 0 255 255
-0.147016 -0.315452 -0.0100071 0 255 255
-0.168858 -0.309582 -0.000957876 0 255 255
-0.0693988 -0.353196 0.0727016 0 255 255
-0.0750059 -0.353196 0.0852769 0 255 255
-0.0792114 -0.353196 0.0947085 0 255 255
0.00555921 -0.353197 -0.0717382 0 255 255
0.00131243 -0.353197 -0.0622137 0 255 255
-0.00435007 -0.353197 -0.0495144 0 255 255
-0.0085969 -0.353197 -0.0399898 0 255 255
-0.0128438 -0.353197 -0.0304653 0 255 255
-0.0170907 -0.353196 -0.0209409 0 255 255
-0.0213375 -0.353196 -0.0114164 0 255 255
-0.0255842 -0.353196 -0.00189188 0 255 255
-0.0298313 -0.353196 0.00763252 0 255 255
-0.0354937 -0.353196 0.0203318 0 255 255
-0.0397405 -0.353196 0.0298563 0 255 255
-0.133488 -0.316789 -0.0100178 0 255 255
-0.166609 -0.305982 -0.0099875 0 255 255
-0.0595591 -0.353195 0.0743037 0 255 255
-0.0638058 -0.353195 0.0838281 0 255 255
-0.0680527 -0.353195 0.0933525 0 255 255
0.00623465 -0.353196 -0.0491123 0 255 255
0.00194561 -0.353196 -0.039493 0 255 255
-0.00234342 -0.353196 -0.0298737 0 255 255
-0.00663257 -0.353196 -0.0202545 0 255 255
-0.0109217 -0.353196 -0.0106352 0 255 255
-0.0152107 -0.353196 -0.00101596 0 255 255
-0.0194999 -0.353196 0.00860316 0 255 255
-0.023789 -0.353195 0.0182225 0 255 255
-0.0280781 -0.353195 0.0278416 0 255 255
-0.153636 -0.307159 -0.00999963 0 255 255
-0.168869 -0.305025 0.00935882 0 255 255
-0.0509532 -0.353195 0.0791441 0 255 255
-0.0552423 -0.353195 0.0887632 0 255 255
-0.0595313 -0.353195 0.0983823 0 255 255
0.00403565 -0.353195 -0.0195543 0 255 255
-0.000296474 -0.353195 -0.0098384 0 255 255
-0.00462872 -0.353195 -0.000122458 0 255 255
-0.00896084 -0.353195 0.0095934 0 255 255
-0.0132931 -0.353195 0.0193092 0 255 255
-0.0176253 -0.353195 0.0290251 0 255 255
-0.0219575 -0.353195 0.038741 0 255 255
-0.14702 -0.306218 -0.0100089 0 255 255
-0.168858 -0.300521 -0.000958025 0 255 255
-0.194866 -0.292078 -0.00179952 0 255 255
-0.206608 -0.288322 -0.00179011 0 255 255
-0.0493947 -0.353194 0.100275 0 255 255
0.00616813 -0.353195 0.000789136 0 255 255
0.00179201 -0.353194 0.0106037 0 255 255
-0.00258428 -0.353194 0.0204181 0 255 255
-0.00696051 -0.353194 0.0302326 0 255 255
-0.0113367 -0.353194 0.040047 0 255 255
-0.133488 -0.307426 -0.0100178 0 255 255
-0.166615 -0.296936 -0.00999072 0 255 255
-0.0346761 -0.353193 0.092391 0 255 255
-0.216553 -0.282398 -0.000910282 0 255 255
0.00687063 -0.353194 0.0248547 0 255 255
0.000975847 -0.353193 0.0380749 0 255 255
-0.00344527 -0.353193 0.04799 0 255 255
-0.181917 -0.290336 -0.00131267 0 255 255
-0.0240767 -0.353193 0.0942606 0 255 255
0.00609863 -0.353193 0.0527583 0 255 255
-0.147021 -0.296985 -0.0100096 0 255 255
-0.153646 -0.29493 -0.0100049 0 255 255
-0.168858 -0.29146 -0.000958085 0 255 255
-0.16887 -0.292884 0.00935844 0 255 255
-0.0147466 -0.353192 0.0995083 0 255 255
-0.221159 -0.272465 -0.000308633 0 255 255
-0.133491 -0.294941 -0.0100192 0 255 255
-0.160177 -0.286833 -0.00999877 0 255 255
-0.168689 -0.286883 0.00945929 0 255 255
-0.140305 -0.286672 -0.0100153 0 255 255
-0.160807 -0.281897 -3.15607e-05 0 255 255
-0.148707 -0.281895 -0.00396326 0 255 255
-0.15246 -0.281897 0.00447297 0 255 255
-0.221791 -0.260818 -0.000678897 0 255 255
-0.138863 -0.281896 -0.00229204 0 255 255
-0.128803 -0.281895 -0.000585884 0 255 255
-0.13265 -0.281895 0.00803381 0 255 255
-0.133497 -0.276212 -0.0100222 0 255 255
-0.161625 -0.265512 -0.00734246 0 255 255
-0.161261 -0.266934 0.00317654 0 255 255
-0.217897 -0.250385 -0.00169122 0 255 255
-0.1335 -0.266848 -0.0100237 0 255 255
-0.147621 -0.263353 -0.00686127 0 255 255
-0.15937 -0.257167 -0.00614581 0 255 255
-0.175626 -0.253343 -0.00124183 0 255 255
-0.212312 -0.243311 -0.00175405 0 255 255
-0.13735 -0.260592 -0.00150278 0 255 255
-0.185276 -0.247927 0.000206113 0 255 255
-0.133503 -0.257484 -0.0100252 0 255 255
-0.159726 -0.252598 0.00748292 0 255 255
-0.194883 -0.24217 -0.00180858 0 255 255
-0.161073 -0.247484 -0.00704953 0 255 255
-0.137816 -0.251081 -0.00174603 0 255 255
-0.161513 -0.245898 0.00650215 0 255 255
-0.140312 -0.246381 -0.010019 0 255 255
-0.168062 -0.237344 -0.000524908 0 255 255
-0.140428 -0.241311 0.000393271 0 255 255
-0.140315 -0.237082 -0.0100205 0 255 255
-0.153646 -0.230748 -0.0100051 0 255 255
-0.165842 -0.229691 0.00758183 0 255 255
-0.14303 -0.231574 0.00252545 0 255 255
-0.16713 -0.224797 -0.00685939 0 255 255
-0.147026 -0.2262 -0.0100123 0 255 255
-0.172519 -0.221278 0.000463158 0 255 255
-0.153644 -0.22158 -0.0100041 0 255 255
-0.166615 -0.215542 -0.0099906 0 255 255
-0.145623 -0.221871 0.00465038 0 255 255
-0.146808 -0.217378 -0.00643739 0 255 255
-0.170421 -0.212492 -0.00180879 0 255 255
-0.168862 -0.213975 0.00936309 0 255 255
-0.172967 -0.208094 -0.00998354 0 255 255
-0.16661 -0.2065 -0.00998819 0 255 255
-0.17188 -0.207074 0.00767952 0 255 255
-0.17296 -0.202108 -0.00997943 0 255 255
-0.176396 -0.202166 -0.00166452 0 255 255
-0.180359 -0.202414 0.00978217 0 255 255
-0.150258 -0.204465 -0.00477928 0 255 255
-0.185418 -0.19645 -0.00997025 0 255 255
-0.159196 -0.196343 -0.00605372 0 255 255
-0.18706 -0.191991 0.00938505 0 255 255
-0.191508 -0.186345 -0.00995734 0 255 255
-0.180912 -0.189347 -0.000756383 0 255 255
-0.168176 -0.188328 -0.0074192 0 255 255
-0.161802 -0.186574 -0.00743687 0 255 255
-0.169813 -0.182202 -0.00489229 0 255 255
-0.179017 -0.180273 -0.00648636 0 255 255
-0.178699 -0.18153 0.00729385 0 255 255
-0.158043 -0.175298 -0.00544202 0 255 255
-0.181483 -0.171045 -0.00445607 0 255 255
-0.181258 -0.171937 0.00585437 0 255 255
-0.160633 -0.165591 -0.00681648 0 255 255
-0.167745 -0.164315 -0.0071885 0 255 255
-0.184011 -0.161569 -0.00584304 0 255 255
-0.1838 -0.162409 0.00442469 0 255 255
-0.176554 -0.156952 -0.00514612 0 255 255
-0.163139 -0.156215 -0.00472361 0 255 255
-0.186521 -0.152158 -0.00722069 0 255 255
-0.187098 -0.150065 0.00596115 0 255 255
-0.192742 -0.145728 -0.000604689 0 255 255
-0.165699 -0.146621 -0.00609359 0 255 255
-0.172771 -0.14549 -0.00648838 0 255 255
-0.19061 -0.136847 -0.00612256 0 255 255
-0.168183 -0.137324 -0.00401255 0 255 255
-0.182364 -0.135188 -0.0049395 0 255 255
-0.191208 -0.134674 0.00701374 0 255 255
-0.197845 -0.12738 -0.000132918 0 255 255
-0.177747 -0.126854 -0.00579527 0 255 255
-0.171553 -0.124693 -0.00583115 0 255 255
-0.18728 -0.116774 -0.00428021 0 255 255
-0.1963 -0.115534 -0.00594395 0 255 255
-0.196107 -0.116325 0.00758457 0 255 255
-0.174061 -0.115294 -0.00718454 0 255 255
-0.202767 -0.109246 0.000405878 0 255 255
-0.176508 -0.106136 -0.00512126 0 255 255
-0.183497 -0.105316 -0.00556093 0 255 255
-0.200311 -0.100518 -0.00486165 0 255 255
-0.200187 -0.101031 0.00523335 0 255 255
-0.178987 -0.0968446 -0.00647029 0 255 255
-0.193773 -0.0924543 -0.00453377 0 255 255
-0.202724 -0.0914714 -0.00621891 0 255 255
-0.202576 -0.0920929 0.00720954 0 255 255
-0.182233 -0.0846932 -0.00486755 0 255 255
-0.209935 -0.0823373 -0.000384271 0 255 255
-0.189987 -0.0809998 -0.00577793 0 255 255
-0.197803 -0.0773501 -0.00678205 0 255 255
-0.207359 -0.0741797 0.00777248 0 255 255
-0.18549 -0.0724871 -0.00665462 0 255 255
-0.208266 -0.0707139 -0.00604212 0 255 255
-0.193988 -0.0660194 -0.00465378 0 255 255
-0.209745 -0.0652349 0.00637513 0 255 255
-0.21063 -0.0618503 -0.00738287 0 255 255
-0.189499 -0.0574744 -0.00550762 0 255 255
-0.197799 -0.0569183 -0.00678015 0 255 255
-0.212116 -0.0563495 0.00498706 0 255 255
-0.190241 -0.0547399 0.00417894 0 255 255
-0.213741 -0.0502062 -0.00586751 0 255 255
-0.192697 -0.045486 -0.00727737 0 255 255
-0.192649 -0.0457127 0.00281337 0 255 255
-0.215236 -0.0446681 0.00647548 0 255 255
-0.216073 -0.0414629 -0.00720072 0 255 255
-0.195066 -0.0366233 -0.00525519 0 255 255
-0.195029 -0.0368055 0.00482917 0 255 255
-0.217574 -0.035904 0.00509542 0 255 255
-0.21915 -0.0299436 -0.0056949 0 255 255
-0.219889 -0.0272427 0.00703409 0 255 255
-0.198221 -0.0247961 -0.00701556 0 255 255
-0.1982 -0.024919 0.00301644 0 255 255
-0.221451 -0.0213185 -0.00702077 0 255 255
-0.200567 -0.0160189 -0.00500575 0 255 255
-0.200558 -0.0160981 0.0050199 0 255 255
-0.227691 -0.0155717 -0.000876099 0 255 255
-0.224496 -0.0099877 0.00758719 0 255 255
-0.202904 -0.00725782 -0.00632042 0 255 255
-0.202906 -0.00729361 0.00366631 0 255 255
-0.225254 -0.0070794 -0.00596485 0 255 255
-0.226781 -0.00142217 0.00621697 0 255 255
-0.206003 0.00434309 -0.00475922 1 254 255
-0.206021 0.00436444 0.00520837 1 254 255
-0.228277 0.00423624 -0.0044769 1 254 255
-0.229813 0.00992828 0.00767881 2 253 255
-0.20831 0.0129875 -0.00606704 3 252 255
-0.208338 0.0130511 0.00386214 3 252 255
-0.230526 0.0126677 -0.0057939 3 252 255
-0.232068 0.0183784 0.00631639 4 251 255
-0.237805 0.0209953 -0.000393838 5 250 255
-0.211376 0.024467 -0.00451559 6 249 255
-0.21142 0.0245866 0.00539464 6 249 255
-0.234998 0.0294161 -0.00518933 7 248 255
-0.235068 0.0296088 0.00776932 7 248 255
-0.213652 0.0329968 -0.00581655 8 247 255
-0.213706 0.0331576 0.00405571 8 247 255
-0.237208 0.0376995 -0.00649351 9 246 255
-0.237292 0.0379457 0.00641465 9 246 255
-0.243055 0.0403476 -0.000324309 10 245 255
-0.216686 0.0443569 -0.00427485 11 244 255
-0.217509 0.0473976 0.00513393 12 243 255
-0.240157 0.0487405 -0.0050247 12 243 255
-0.240235 0.0489782 0.00462195 12 243 255
-0.218932 0.0527742 -0.00556904 13 242 255
-0.219011 0.0530298 0.00424704 13 242 255
-0.247572 0.0567593 0.00015229 14 241 255
-0.221904 0.0639144 -0.00728187 16 239 255
-0.243846 0.0625357 -0.000802398 16 239 255
-0.222773 0.067114 0.00531828 17 238 255
-0.224221 0.0725555 0.00117216 18 237 255
-0.246692 0.0732236 -0.005723 18 237 255
-0.246837 0.0736967 0.00705323 18 237 255
-0.252692 0.0756908 0.000227481 19 236 255
-0.227085 0.0833182 -0.00702834 21 234 255
-0.227203 0.0837178 0.00268286 21 234 255
-0.249586 0.0840558 -0.00427166 21 234 255
-0.249708 0.0844614 0.0052768 21 234 255
-0.230037 0.0943705 -0.00550756 24 231 255
-0.230169 0.0948219 0.00418556 24 231 255
-0.25189 0.0926238 0.00714564 23 232 255
-0.25242 0.0946803 -0.00598443 24 231 255
-0.25775 0.0943999 0.000301808 24 231 255
-0.232206 0.1025 -0.00677773 26 229 255
-0.232348 0.102989 0.00287899 26 229 255
-0.25453 0.10259 -0.00725961 26 229 255
-0.254724 0.103247 0.00537917 26 229 255
-0.235128 0.113441 -0.00526625 29 226 255
-0.235284 0.11398 0.0043726 29 226 255
-0.257375 0.113239 -0.00581861 28 227 255
-0.262731 0.112894 0.000387132 28 227 255
0.321448 0.203414 -0.0191693 52 203 255
0.322157 0.204139 -0.00939739 52 203 255
0.316111 0.203759 -0.00179189 52 203 255
0.314276 0.204378 0.012026 52 203 255
0.312162 0.204647 0.0209752 52 203 255
0.308836 0.204716 0.0295157 52 203 255
0.304701 0.20465 0.0377667 52 203 255
0.296837 0.204274 0.049503 52 203 255
0.285824 0.203365 0.0599569 52 203 255
-0.23798 0.124129 -0.00694948 31 224 255
-0.238148 0.124717 0.00264141 31 224 255
0.305328 0.203774 -0.0475586 52 203 255
0.305233 0.204364 -0.0383074 52 203 255
0.308952 0.205593 -0.0278135 52 203 255
0.31182 0.206687 -0.017479 52 203 255
0.277014 0.206739 0.0613866 52 203 255
0.266882 0.205628 0.0670889 52 203 255
0.252532 0.20378 0.0709544 52 203 255
-0.260205 0.123833 -0.00438511 31 224 255
-0.260377 0.124424 0.00504345 31 224 255
0.280405 0.20343 -0.0639865 52 203 255
0.287449 0.204922 -0.0574119 52 203 255
0.293012 0.206167 -0.0512104 52 203 255
0.307254 0.212674 0.0144314 54 201 255
0.304203 0.21279 0.0230144 54 201 255
0.297584 0.21261 0.0351613 54 201 255
0.285162 0.211738 0.0499445 54 201 255
0.245394 0.206996 0.0680243 52 203 255
0.233297 0.205173 0.0678212 52 203 255
0.267092 0.205509 -0.067834 52 203 255
0.294918 0.211557 -0.0414436 54 201 255
0.300959 0.213239 -0.0303044 54 201 255
0.303819 0.214375 -0.0200335 54 201 255
0.305604 0.21533 -0.0100142 55 200 255
0.306294 0.216099 -0.000276536 55 200 255
0.291461 0.216423 0.0377553 55 200 255
0.272955 0.214767 0.0549365 54 201 255
0.262503 0.213548 0.0604899 54 201 255
0.255144 0.212552 0.0623668 54 201 255
0.200146 0.20327 0.0494512 52 203 255
-0.240222 0.132503 -0.00184265 32 222 255
0.247325 0.20666 -0.0691582 52 203 255
0.233345 0.204497 -0.0689016 52 203 255
0.226237 0.203543 -0.0666739 52 203 255
0.296256 0.220841 0.0250102 56 199 255
0.280858 0.219723 0.0434626 56 199 255
0.187445 0.20363 0.0215789 52 203 255
0.187736 0.204311 0.0307162 52 203 255
0.208077 0.209013 0.0527064 52 202 255
-0.267653 0.131174 0.000472128 32 222 255
0.217037 0.206693 -0.060797 52 203 255
0.203742 0.205201 -0.0519856 52 203 255
0.197301 0.204642 -0.0454243 52 203 255
0.189368 0.204113 -0.0350859 52 203 255
0.186225 0.204152 -0.0274884 52 203 255
0.182189 0.204336 -0.0158427 52 203 255
0.181091 0.204754 -0.00748256 52 203 255
0.180955 0.205668 0.00569624 52 203 255
0.193368 0.209903 0.0375148 52 202 255
-0.249408 0.136228 -0.0073514 34 221 255
-0.259875 0.134563 -0.00734115 34 221 255
0.241687 0.214782 -0.0620349 54 201 255
0.228552 0.212679 -0.061622 54 201 255
0.189217 0.213019 0.0313059 54 201 255
0.21919 0.21577 -0.0557868 55 200 255
0.208684 0.214428 -0.0504076 54 201 255
0.199783 0.213381 -0.0446127 54 201 255
0.191679 0.2128 -0.0343036 54 201 255
0.186968 0.212542 -0.027231 54 201 255
0.182448 0.212641 -0.0157499 54 201 255
0.181296 0.213067 -0.00740731 54 201 255
0.181306 0.214046 0.00582913 54 201 255
0.182562 0.214946 0.0152037 55 200 255
0.198223 0.219332 0.0394682 56 199 255
-0.244288 0.142571 -0.00748241 36 219 255
-0.26947 0.138439 -0.00694838 35 220 255
-0.269719 0.139317 0.00549316 35 220 255
0.235814 0.222825 -0.0550165 56 198 255
0.20961 0.225858 0.044049 56 198 255
-0.254677 0.143595 -0.00734824 36 219 255
0.221466 0.224931 -0.0507087 56 198 255
0.209403 0.22323 -0.0458293 56 198 255
0.182285 0.222896 0.0106412 56 198 255
0.186717 0.224476 0.0212947 56 198 255
-0.256685 0.146867 0.0041565 36 218 255
0.198094 0.22615 -0.036489 56 198 255
0.192467 0.225695 -0.0296883 56 198 255
0.184935 0.225192 -0.0192312 56 198 255
0.18227 0.225334 -0.0114389 56 198 255
0.180982 0.226102 0.00128356 56 198 255
0.193902 0.230504 0.0286275 59 195 255
0.227052 0.234827 -0.0445433 60 195 255
0.216755 0.233076 -0.0434538 59 195 255
0.18819 0.233176 0.0218695 59 195 255
-0.249953 0.152617 -0.00767812 39 216 255
-0.271026 0.149336 -0.001647 38 217 255
0.208353 0.236236 -0.0374398 60 195 255
0.197871 0.234755 -0.0322073 60 195 255
0.191602 0.234149 -0.0256261 59 195 255
0.184102 0.233635 -0.0151575 59 195 255
0.181877 0.233875 -0.00719488 59 195 255
0.182185 0.235014 0.00616157 60 195 255
-0.257755 0.154081 -0.00605005 39 216 255
-0.257958 0.154807 0.00336251 39 216 255
0.258642 0.250337 -0.0299197 64 191 255
0.221416 0.242825 -0.0375398 62 193 255
0.194873 0.24303 0.0244766 62 193 255
0.230573 0.249022 -0.0345457 63 192 255
0.209709 0.245259 -0.0326019 62 193 255
0.198201 0.243504 -0.0277244 62 193 255
0.190735 0.242616 -0.0215579 62 193 255
0.181452 0.2428 0.00145912 62 193 255
0.184163 0.244141 0.0113585 62 193 255
0.203228 0.249102 0.0277359 63 192 255
0.183762 0.246338 -0.0108987 63 192 255
-0.250603 0.163459 -0.00806785 40 214 255
-0.260017 0.162524 0.00207937 40 214 255
-0.274845 0.15943 -0.000916719 40 215 255
0.234185 0.258341 -0.0333649 65 189 255
0.220237 0.255614 -0.0335083 65 190 255
0.211745 0.2541 -0.0319204 65 190 255
0.185267 0.253126 0.0162477 64 191 255
0.192213 0.255102 0.0234388 65 190 255
-0.260191 0.164387 -0.00753364 42 213 255
0.198612 0.256084 -0.027584 65 190 255
0.189908 0.254869 -0.0218478 65 190 255
0.181501 0.254099 -0.0117174 65 190 255
0.177948 0.254443 0.000148654 65 190 255
0.220773 0.264188 -0.0333311 67 188 255
0.17702 0.259154 0.00862971 65 189 255
-0.252555 0.172635 0.00673103 44 211 255
0.210323 0.266366 -0.0323962 68 187 255
0.196385 0.263888 -0.0283463 67 188 255
0.181785 0.265251 0.0193708 67 188 255
-0.256182 0.173291 -0.0082581 44 211 255
-0.275974 0.169853 -0.00163093 43 211 255
0.225048 0.27366 -0.0319168 70 185 255
0.185613 0.266271 -0.023352 68 187 255
0.178674 0.26541 -0.0171016 67 188 255
0.172978 0.265247 -0.00608808 67 188 255
0.210843 0.274881 -0.0322224 70 185 255
0.201442 0.273016 -0.0309984 69 186 255
0.17038 0.269956 0.00609282 69 186 255
0.185734 0.275005 0.0254082 70 185 255
0.188043 0.274713 -0.0268587 70 185 255
0.17924 0.273365 -0.0212482 69 186 255
0.170933 0.272547 -0.0112011 69 186 255
0.172405 0.275428 0.0157116 70 185 255
-0.26429 0.179874 -0.00689274 46 209 255
-0.256721 0.18285 0.00733963 46 209 255
-0.283653 0.176363 -0.000286728 44 210 255
0.213244 0.283874 -0.0314189 72 183 255
-0.256821 0.184031 -0.00864431 47 208 255
-0.264979 0.183921 0.008517 47 208 255
0.201058 0.285423 -0.0311284 73 182 255
0.163464 0.280109 -0.000915736 71 184 255
0.172634 0.284207 0.0202445 72 183 255
-0.294696 0.17914 -0.00124532 44 210 255
0.191912 0.28767 -0.0298782 73 182 255
0.179799 0.28541 -0.0253886 73 182 255
0.171524 0.284131 -0.0196621 72 183 255
0.163782 0.283414 -0.00949079 72 183 255
0.164788 0.285854 0.01274 73 182 255
-0.265877 0.187537 -0.00786656 48 207 255
0.202076 0.294022 -0.0307837 75 179 255
0.144597 0.283288 -0.00804794 72 183 255
0.133406 0.280752 -0.00803283 71 184 255
0.122393 0.278256 -0.00802568 71 184 255
0.111589 0.275807 -0.00801307 70 185 255
0.0977886 0.272972 -0.00510243 69 186 255
0.092381 0.271948 -0.00311151 69 186 255
0.081687 0.269921 0.000825852 69 186 255
0.0711514 0.267924 0.00470504 68 187 255
-0.261031 0.192921 0.00782835 48 206 255
-0.304276 0.182182 -0.00140828 46 209 255
0.177641 0.293049 -0.0261447 75 179 255
0.0802879 0.272525 -0.00797641 69 186 255
0.0702069 0.270208 -0.00796553 69 186 255
0.0603008 0.267932 -0.00795275 68 187 255
0.0505563 0.265692 -0.00794178 68 187 255
0.0409734 0.263489 -0.00793102 67 188 255
0.0315481 0.261323 -0.00792044 65 189 255
0.0222765 0.259192 -0.00791001 65 189 255
0.00637335 0.255635 -0.00693467 65 190 255
-0.00294948 0.253868 -0.0032568 64 191 255
-0.0166947 0.251263 0.00216565 64 191 255
-0.0257046 0.249556 0.00571823 63 192 255
-0.257459 0.194751 -0.00902978 48 206 255
0.191665 0.300021 -0.0299629 76 179 255
0.171652 0.295981 -0.0239359 75 179 255
0.160968 0.294435 -0.0148486 75 179 255
0.133402 0.288716 -0.00803423 73 182 255
0.111586 0.283631 -0.00801429 72 183 255
0.0905372 0.278725 -0.00799 71 184 255
-0.0133403 0.254517 -0.00786766 65 190 255
-0.0303206 0.250559 -0.00784853 64 191 255
-0.0386144 0.248627 -0.00783929 63 192 255
-0.0548238 0.244849 -0.00782114 62 193 255
-0.0627451 0.243003 -0.00781223 62 193 255
-0.076125 0.23999 -0.00678661 60 194 255
-0.0842327 0.238453 -0.00338066 60 194 255
-0.096203 0.236185 0.00164655 60 195 255
-0.104058 0.234696 0.00494492 60 195 255
0.144594 0.295342 -0.00804922 75 179 255
0.12239 0.290096 -0.00802684 73 181 255
0.100968 0.285034 -0.00800255 72 183 255
0.0702031 0.277765 -0.00796705 71 184 255
0.0505502 0.273122 -0.00794432 69 186 255
0.0315435 0.268632 -0.00792238 68 187 255
-0.0932665 0.239143 -0.00777575 60 194 255
-0.107869 0.235693 -0.00775945 60 195 255
-0.122056 0.232341 -0.00774354 59 195 255
-0.129 0.230701 -0.00773576 59 195 255
-0.142596 0.227488 -0.00772053 58 197 255
-0.154361 0.225154 -0.00348756 56 198 255
-0.164896 0.223157 0.0011982 56 198 255
-0.175246 0.221195 0.0058015 56 199 255
-0.262632 0.198976 -0.00902084 50 205 255
-0.268584 0.199511 0.00939804 51 204 255
-0.313156 0.187852 -0.00124881 48 207 255
0.19327 0.308741 -0.0294133 79 176 255
0.182308 0.306175 -0.028845 78 177 255
0.169522 0.303555 -0.0246904 77 178 255
0.0802811 0.283958 -0.00797918 72 183 255
0.0602926 0.279171 -0.00795612 71 184 255
0.0409669 0.274543 -0.00793374 70 185 255
0.0222715 0.270066 -0.00791219 69 186 255
0.00417608 0.265732 -0.00789124 68 187 255
-0.00465566 0.263617 -0.00788102 67 188 255
-0.16868 0.224337 -0.00768924 56 198 255
-0.181201 0.221338 -0.00767532 56 199 255
-0.193392 0.218419 -0.0076617 55 200 255
-0.205265 0.215575 -0.00764841 55 200 255
-0.215483 0.213562 -0.00358123 54 201 255
-0.22484 0.211789 0.000806898 54 201 255
-0.234043 0.210045 0.00512272 52 202 255
-0.260284 0.204097 0.00830123 52 203 255
0.159777 0.305816 -0.0195835 78 177 255
0.151892 0.304983 -0.00959685 78 177 255
0.133386 0.300658 -0.00804019 76 179 255
0.122388 0.297989 -0.00802758 76 179 255
0.111582 0.295366 -0.00801587 75 179 255
0.100966 0.29279 -0.00800359 73 181 255
0.0905334 0.290258 -0.00799155 73 181 255
-0.0133489 0.265046 -0.00787148 67 188 255
-0.0303279 0.260925 -0.00785184 65 189 255
-0.0386208 0.258913 -0.00784227 65 189 255
-0.0548255 0.25498 -0.00782198 65 190 255
-0.0627317 0.253062 -0.00780597 64 191 255
-0.0703909 0.252009 -0.000352323 64 191 255
-0.142592 0.23368 -0.0077185 59 195 255
-0.222505 0.214285 -0.00762784 54 201 255
-0.233636 0.211584 -0.00761527 54 201 255
-0.244491 0.208949 -0.0076029 52 202 255
-0.255078 0.20638 -0.00759092 52 203 255
-0.272018 0.202842 -0.00227019 51 204 255
0.1824 0.314421 -0.0288132 80 175 255
0.118071 0.301616 -0.00126153 77 178 255
0.110158 0.299788 -0.000176579 76 179 255
0.0702011 0.289102 -0.00796789 73 181 255
0.0505509 0.28427 -0.00794405 72 183 255
0.0315469 0.279597 -0.00792098 71 184 255
0.00418401 0.272868 -0.00788778 69 186 255
-0.078034 0.253062 -0.00403771 64 191 255
-0.0889662 0.250991 0.0016019 64 191 255
-0.0997212 0.248954 0.00714993 63 192 255
-0.275485 0.204095 -0.00756413 52 203 255
-0.27753 0.205167 0.00679645 52 203 255
0.16682 0.314999 -0.0256475 80 175 255
0.157141 0.313155 -0.0205379 80 175 255
0.145115 0.312522 0.000746578 80 175 255
0.129331 0.308384 -0.0010919 78 177 255
0.147365 0.314143 0.0102847 80 175 255
0.0951318 0.299758 -0.00200492 76 179 255
0.0845748 0.297113 -0.00212666 76 179 255
0.0747091 0.294664 -0.00203842 75 179 255
0.0654384 0.292383 -0.00177181 73 181 255
0.0567724 0.290274 -0.00131571 73 181 255
0.013148 0.278668 -0.00790274 71 184 255
-0.00465566 0.274233 -0.00788102 70 185 255
-0.0303235 0.267839 -0.00784984 68 187 255
-0.0932614 0.25216 -0.00777328 64 191 255
-0.107862 0.248522 -0.00775576 63 192 255
-0.122048 0.244988 -0.00773931 62 193 255
-0.127811 0.243619 -0.0071314 62 193 255
-0.137819 0.241723 -0.00174752 60 194 255
-0.147671 0.239857 0.00355452 60 194 255
-0.26326 0.209606 -0.00940326 52 202 255
0.184574 0.323274 -0.0280603 81 173 255
0.146996 0.315659 -0.0114281 80 175 255
0.119683 0.30998 -0.000626057 79 176 255
0.158551 0.322509 0.023508 81 173 255
0.0467696 0.291475 -0.00148395 73 181 255
0.0362681 0.288772 -0.00193545 73 182 255
0.0267102 0.286346 -0.00205511 73 182 255
0.00925654 0.281972 -0.00176606 72 183 255
0.00131464 0.280012 -0.00136456 71 184 255
-0.0548297 0.26511 -0.00782388 67 188 255
-0.0627494 0.263112 -0.00781426 67 188 255
-0.14259 0.242966 -0.00771728 62 193 255
-0.155812 0.239629 -0.00770199 60 194 255
-0.168676 0.236383 -0.00768709 60 195 255
-0.17902 0.233907 -0.0064882 59 195 255
-0.188133 0.23218 -0.00138748 59 195 255
-0.200076 0.229917 0.00529766 58 197 255
-0.233638 0.21999 -0.00761607 56 199 255
-0.255082 0.214579 -0.00759295 54 201 255
-0.321926 0.198428 -0.00114903 50 205 255
0.173206 0.324527 -0.0276982 83 172 255
0.165345 0.322691 -0.02617 81 173 255
0.11123 0.311867 0.000250191 79 176 255
-0.00758994 0.281293 -0.00144899 72 183 255
-0.0257996 0.276575 -0.00199014 70 185 255
-0.0339876 0.274488 -0.00193629 70 185 255
-0.0490785 0.27069 -0.00139925 69 186 255
-0.0932766 0.258662 -0.00778067 65 189 255
-0.193389 0.233079 -0.00766018 59 195 255
-0.205262 0.230045 -0.00764638 58 197 255
-0.216829 0.227089 -0.00763297 58 197 255
-0.244496 0.220018 -0.00760603 56 199 255
-0.278955 0.212744 0.00587347 54 201 255
0.153769 0.324263 -0.0217589 83 172 255
0.146444 0.323042 -0.0159066 81 173 255
0.140191 0.322631 -0.00544062 81 173 255
0.140056 0.324078 0.00740391 81 173 255
0.14876 0.327736 0.0195693 83 172 255
-0.0657198 0.269739 -0.00181442 69 186 255
-0.0736647 0.267669 -0.00193089 68 187 255
-0.0882934 0.263906 -0.00171638 67 188 255
-0.101402 0.2606 -0.000951082 65 189 255
-0.222505 0.228476 -0.0076279 58 197 255
-0.26373 0.217565 -0.00968957 55 200 255
-0.275489 0.214766 -0.0075666 54 201 255
0.174128 0.332971 -0.0273751 85 170 255
0.127593 0.323766 -0.00176972 81 173 255
0.105311 0.317886 -0.00210679 81 174 255
-0.110186 0.261441 -0.00176084 65 189 255
-0.124374 0.257712 -0.00184494 65 190 255
-0.137191 0.254402 -0.00141972 65 190 255
-0.143095 0.252902 -0.00101021 64 191 255
-0.216835 0.2328 -0.00763604 59 195 255
-0.233639 0.228397 -0.00761658 58 197 255
-0.255084 0.222779 -0.00759438 56 198 255
0.164267 0.334537 -0.0265518 85 170 255
0.157128 0.332848 -0.024818 85 170 255
0.121601 0.326373 0.000129938 83 172 255
-0.157726 0.252027 -0.00182697 64 191 255
-0.170173 0.248742 -0.00167343 63 192 255
-0.181469 0.245817 -0.00106466 62 193 255
-0.244495 0.228321 -0.00760543 58 197 255
-0.322597 0.208307 -0.00160623 52 202 255
0.14612 0.334469 -0.020284 85 170 255
0.136873 0.333102 -0.0109678 85 170 255
0.136549 0.334534 0.0017238 85 170 255
0.139215 0.336408 0.0113945 86 169 255
-0.188633 0.246801 -0.00166643 63 192 255
-0.200728 0.243541 -0.00176784 62 193 255
-0.211762 0.240617 -0.00143695 60 194 255
-0.221694 0.238048 -0.000621766 60 195 255
-0.274072 0.222883 -0.00979531 56 198 255
-0.280846 0.222793 0.0046491 56 198 255
0.164243 0.34264 -0.0265603 87 168 255
0.142974 0.339028 -0.00866166 86 169 255
0.145677 0.340929 0.00096342 87 168 255
0.148412 0.342852 0.0106976 87 168 255
0.106482 0.329962 -0.00164059 84 171 255
0.151165 0.344792 0.020537 88 167 255
-0.229152 0.238736 -0.00173867 60 194 255
-0.239878 0.235834 -0.00163683 60 195 255
-0.24972 0.233217 -0.00115585 59 195 255
0.155446 0.344415 -0.0254207 88 167 255
0.153539 0.346435 -0.00466746 88 167 255
0.15774 0.349388 0.00999066 89 166 255
0.160566 0.351379 0.0198965 89 166 255
-0.287921 0.225623 6.76513e-05 56 198 255
0.160063 0.350998 -0.0151801 89 166 255
0.162892 0.352988 -0.00548276 89 165 255
0.168644 0.357035 0.0142444 91 163 255
-0.321886 0.218665 -0.00112134 55 200 255
0.168028 0.356578 -0.0209143 91 163 255
0.173852 0.360667 -0.00138348 92 163 255
0.176801 0.362743 0.00854591 92 163 255
-0.269559 0.234789 -0.0101267 60 195 255
-0.273079 0.236283 0.00967872 60 195 255
-0.298313 0.2279 -0.000537217 58 197 255
0.180498 0.365323 -0.0120807 93 162 255
0.183516 0.367438 -0.00218859 94 161 255
-0.309159 0.22985 -0.00160754 58 197 255
